<svg width="255" height="164" viewBox="0 0 255 164" fill="none" xmlns="http://www.w3.org/2000/svg">
<path fill-rule="evenodd" clip-rule="evenodd" d="M48.1726 44.1684C47.1748 44.3026 45.1497 44.711 43.6723 45.0761C42.1948 45.4412 39.8717 46.1925 38.5098 46.7454C37.1479 47.2986 35.1847 48.2339 34.1471 48.8241C33.1094 49.4142 31.2896 50.6215 30.1029 51.5071C28.9162 52.3923 26.782 54.3201 25.3602 55.7905C23.9382 57.2609 22.1199 59.4468 21.3194 60.648C20.5191 61.8489 19.3749 63.7995 18.777 64.9827C18.1789 66.1655 17.2959 68.3105 16.8146 69.7492C16.3331 71.1877 15.728 73.3501 15.4696 74.5546C15.1031 76.2639 15 77.9043 15 82.0265C15 86.1486 15.1031 87.7891 15.4696 89.4983C15.728 90.7029 16.3331 92.8653 16.8146 94.3038C17.2959 95.7425 18.153 97.8356 18.7192 98.9554C19.2857 100.075 20.4805 102.087 21.3748 103.425C22.4143 104.982 24.1279 106.98 26.1273 108.967C28.119 110.948 30.1373 112.659 31.6879 113.683C33.0265 114.567 35.184 115.793 36.4824 116.407C37.7805 117.022 39.7636 117.829 40.8891 118.201C42.0147 118.572 44.1139 119.129 45.554 119.438C47.7276 119.905 49.0092 120 53.0967 120C57.1841 120 58.4657 119.905 60.6393 119.438C62.0794 119.129 64.1786 118.572 65.3042 118.201C66.4297 117.829 68.4128 117.022 69.7109 116.407C71.0093 115.793 73.1669 114.567 74.5054 113.683C76.056 112.659 78.0743 110.948 80.066 108.967C82.0654 106.98 83.779 104.982 84.8185 103.425C85.7128 102.087 86.9076 100.075 87.4741 98.9554C88.0404 97.8356 88.8974 95.7425 89.3787 94.3038C89.8602 92.8653 90.4653 90.7029 90.7237 89.4983C91.0902 87.7891 91.1933 86.1486 91.1933 82.0265C91.1933 77.9025 91.0907 76.2716 90.7253 74.5868C90.4679 73.4001 89.9587 71.4871 89.5938 70.3356C89.2289 69.1842 88.4174 67.1493 87.7905 65.8136C87.1636 64.4779 85.8735 62.2171 84.9234 60.7894C83.7632 59.0462 82.1688 57.1733 80.0678 55.0856C78.0772 53.1076 76.0542 51.3927 74.5054 50.37C73.1669 49.4863 71.0093 48.2594 69.7109 47.6439C68.4128 47.0281 66.2426 46.1742 64.8885 45.7465C63.5344 45.3186 61.4352 44.7752 60.2236 44.5387C58.9604 44.2921 56.3071 44.0695 54.0037 44.0167C51.7944 43.9662 49.1704 44.0344 48.1726 44.1684ZM58.5468 47.3656C59.8338 47.573 61.933 48.0435 63.2117 48.4109C64.4901 48.7785 66.6147 49.5863 67.9331 50.2059C69.2512 50.8258 71.2921 51.9605 72.4684 52.7278C73.6445 53.4948 75.1318 54.5963 75.7732 55.1752L76.9395 56.2277L75.4817 57.6909L74.0242 59.1541L72.6195 58.0168C71.8469 57.3913 70.3249 56.3279 69.2369 55.6539C68.149 54.9797 66.2685 54.0266 65.058 53.5361C63.8472 53.0452 61.9436 52.4093 60.8274 52.1228C59.7115 51.8363 57.5353 51.4682 55.9917 51.3051C53.8614 51.0801 52.4519 51.0814 50.1427 51.311C48.4693 51.4774 46.0651 51.9116 44.8001 52.2761C43.5352 52.6405 41.6521 53.2897 40.6157 53.7187C39.5793 54.1475 37.532 55.2873 36.0659 56.2512C34.5998 57.215 32.5255 58.8612 31.4559 59.9093C30.3864 60.9574 28.8983 62.6234 28.1493 63.6115C27.4003 64.5996 26.2201 66.5095 25.5269 67.8557C24.8336 69.202 23.9696 71.2309 23.6067 72.3646C23.2439 73.4983 22.7917 75.0635 22.6017 75.8429C22.3781 76.7614 22.2565 78.937 22.2565 82.0265C22.2565 85.116 22.3781 87.2916 22.6017 88.2101C22.7917 88.9895 23.2439 90.5547 23.6067 91.6884C23.9696 92.822 24.8318 94.851 25.5232 96.1972C26.2144 97.5435 27.4244 99.4565 28.212 100.448C28.9996 101.44 29.718 102.406 29.8085 102.594C29.9087 102.803 29.427 103.49 28.5767 104.35L27.1806 105.764L26.0913 104.576C25.4921 103.923 24.4609 102.579 23.7993 101.59C23.1379 100.601 22.0886 98.7797 21.4674 97.5435C20.8464 96.307 19.9979 94.252 19.582 92.9766C19.166 91.7013 18.6148 89.5563 18.3569 88.2101C18.04 86.5555 17.8876 84.552 17.8865 82.0265C17.8855 79.5314 18.0348 77.5204 18.3359 75.9717C18.5839 74.6963 19.0198 72.8663 19.3044 71.905C19.589 70.9437 20.2296 69.2097 20.7282 68.0515C21.2269 66.8934 22.1674 65.0739 22.8181 64.008C23.4689 62.9423 24.5369 61.372 25.1915 60.5186C25.8459 59.665 27.3335 58.0333 28.4968 56.8922C29.6602 55.7511 31.6804 54.09 32.9863 53.2011C34.2919 52.312 36.5521 51.0201 38.0086 50.3304C39.4653 49.6404 41.7065 48.7744 42.9894 48.4057C44.2722 48.0368 46.2548 47.5784 47.3951 47.3867C48.5354 47.1953 50.9845 47.0273 52.8375 47.0134C54.6918 46.9995 57.2588 47.1579 58.5468 47.3656ZM60.0178 55.0601C61.4012 55.4179 63.5287 56.1746 64.7457 56.7415C65.9624 57.3083 67.7597 58.307 68.7396 58.9604C69.7192 59.614 70.7937 60.4375 71.127 60.7902L71.7332 61.4317L70.2907 62.8661L68.8479 64.3002L67.1922 63.0771C66.2815 62.4044 64.4798 61.3524 63.1884 60.7392C61.897 60.1262 59.7978 59.3729 58.5235 59.0652C56.7537 58.638 55.4415 58.509 52.9671 58.5187C50.3685 58.5288 49.2297 58.6602 47.2106 59.1827C45.8262 59.5408 43.707 60.32 42.5011 60.9139C41.2952 61.508 39.4135 62.6999 38.319 63.5625C37.2246 64.4251 35.5748 66.0627 34.6524 67.2018C33.7301 68.3409 32.4641 70.3163 31.8392 71.5917C31.2141 72.867 30.4372 74.8381 30.1124 75.9717C29.6086 77.7304 29.5242 78.6191 29.5356 82.0265C29.5467 85.3115 29.6496 86.3834 30.1166 88.0674C30.4286 89.1933 31.1504 91.0726 31.7203 92.2433C32.2904 93.4141 33.3253 95.1187 34.0201 96.0311L35.2832 97.6903L33.7713 99.1777L32.2593 100.665L31.725 100.042C31.4308 99.6985 30.5452 98.4692 29.7566 97.31C28.968 96.1506 27.9155 94.268 27.418 93.1263C26.9204 91.9847 26.2909 90.187 26.0193 89.1314C25.7479 88.0759 25.3965 86.0456 25.2387 84.6195C25.0287 82.7232 25.0287 81.3298 25.2387 79.4335C25.3965 78.0074 25.7479 75.9771 26.0193 74.9215C26.2909 73.8659 26.9204 72.0683 27.418 70.9267C27.9155 69.785 28.9929 67.8444 29.8123 66.6141C30.6315 65.3841 32.2438 63.4468 33.3952 62.3096C34.5464 61.1723 36.3015 59.7075 37.2951 59.0547C38.289 58.4018 39.8258 57.507 40.7106 57.0664C41.5951 56.6258 43.1876 55.9755 44.2494 55.6212C45.3112 55.2667 47.0947 54.805 48.2128 54.5947C49.614 54.3314 51.3732 54.2433 53.8741 54.3111C56.6783 54.3871 58.0736 54.5571 60.0178 55.0601ZM81.5199 61.2728C82.3551 62.3992 83.6644 64.5442 84.4295 66.0393C85.1945 67.5342 86.127 69.6729 86.5012 70.7919C86.8757 71.9109 87.4305 73.9979 87.7345 75.4296C88.1624 77.4444 88.2873 78.9355 88.2873 82.0265C88.2873 85.1572 88.1637 86.6047 87.7151 88.7254C87.4002 90.2133 86.8516 92.2946 86.496 93.3505C86.1402 94.4063 85.336 96.297 84.7088 97.5517C84.0817 98.8065 83.0471 100.609 82.4098 101.558C81.7725 102.507 80.5547 104.096 79.7034 105.089C78.8523 106.083 77.2409 107.658 76.1223 108.589C75.0038 109.521 73.3459 110.779 72.4378 111.386C71.53 111.994 69.6057 113.05 68.1617 113.734C66.7179 114.417 64.4901 115.277 63.2117 115.643C61.933 116.01 59.8338 116.48 58.5468 116.687C57.2596 116.895 54.8071 117.065 53.0967 117.065C51.3862 117.065 48.9338 116.895 47.6465 116.687C46.3595 116.48 44.2603 116.01 42.9816 115.643C41.7032 115.277 39.4798 114.42 38.0412 113.738C36.6026 113.057 34.5617 111.918 33.5059 111.208C32.4501 110.498 31.0615 109.446 30.4201 108.871L29.2538 107.825L30.7189 106.355L32.1837 104.884L33.4401 105.933C34.131 106.509 35.7277 107.623 36.9885 108.408C38.2493 109.192 40.1858 110.181 41.2914 110.605C42.3972 111.029 44.1403 111.607 45.165 111.889C46.1895 112.171 48.2179 112.54 49.6726 112.708C51.1939 112.884 53.3843 112.944 54.8294 112.85C56.211 112.76 58.1941 112.51 59.2362 112.295C60.278 112.079 61.8887 111.655 62.8152 111.352C63.7417 111.049 65.2578 110.464 66.1843 110.052C67.1108 109.64 68.9767 108.567 70.3309 107.668C71.685 106.768 73.7546 105.066 74.9299 103.884C76.1052 102.703 77.6327 100.964 78.3242 100.018C79.0153 99.0731 80.0611 97.383 80.6478 96.2619C81.2343 95.1409 82.0628 93.1892 82.4891 91.9244C82.9154 90.6596 83.4447 88.5958 83.6652 87.3379C83.8857 86.0798 84.0664 83.6899 84.0664 82.0265C84.0664 80.3631 83.8857 77.9731 83.6652 76.715C83.4447 75.4572 82.9154 73.3934 82.4891 72.1286C82.0628 70.8638 81.2252 68.8923 80.6276 67.7475C80.0297 66.6025 78.8096 64.7 77.9162 63.52C77.0226 62.34 76.2916 61.3001 76.2916 61.2094C76.2916 61.1184 76.8975 60.4344 77.6379 59.689C78.936 58.3822 79.0024 58.3497 79.4927 58.779C79.7723 59.024 80.6846 60.1461 81.5199 61.2728ZM56.5953 61.7824C57.6644 61.9749 59.3541 62.4397 60.3503 62.8156C61.3468 63.1915 62.6358 63.7753 63.2153 64.1128C63.7948 64.4504 64.9898 65.2653 65.871 65.9239C66.7518 66.5822 68.1163 67.8918 68.9029 68.834C69.6897 69.7763 70.7883 71.4198 71.3444 72.4865C71.9008 73.5532 72.6291 75.2954 72.9632 76.3582C73.4828 78.0115 73.5704 78.8298 73.5704 82.0265C73.5704 85.2232 73.4828 86.0415 72.9632 87.6948C72.6291 88.7576 71.897 90.507 71.3361 91.5825C70.7753 92.6579 69.6866 94.2968 68.9169 95.2246C68.1472 96.1524 66.8384 97.4301 66.0086 98.0637C65.1787 98.6972 63.8479 99.5805 63.051 100.027C62.2544 100.473 60.7383 101.13 59.6819 101.488C58.6259 101.846 56.6928 102.273 55.3866 102.438C53.572 102.667 52.4682 102.665 50.7087 102.432C49.442 102.265 47.5519 101.839 46.5085 101.486C45.4651 101.133 43.8964 100.445 43.0228 99.9564C42.1492 99.4676 40.6681 98.4367 39.7317 97.6651C38.7951 96.8934 37.4664 95.523 36.7791 94.6194C36.0916 93.7158 35.0806 92.0491 34.5322 90.9154C33.9838 89.7818 33.3009 87.9372 33.0143 86.8162C32.6522 85.3999 32.4947 83.946 32.4972 82.0497C32.4993 80.5463 32.6763 78.5693 32.8914 77.6464C33.1063 76.7253 33.579 75.2263 33.9418 74.3153C34.3046 73.404 35.1018 71.8967 35.7132 70.9658C36.3245 70.0347 37.3114 68.7292 37.9065 68.0649C38.5015 67.4005 39.7118 66.3163 40.5963 65.6551C41.4805 64.9943 42.7865 64.1603 43.4981 63.8016C44.2098 63.4432 45.4359 62.9233 46.2232 62.6463C47.0103 62.3693 48.4706 61.9893 49.4684 61.8017C50.4662 61.6144 52.0406 61.4547 52.9671 61.4467C53.8936 61.439 55.5263 61.5899 56.5953 61.7824ZM77.1299 67.796C77.7848 68.8917 78.6655 70.6577 79.0869 71.7205C79.5083 72.7833 80.0411 74.4065 80.2707 75.3276C80.5003 76.2487 80.8061 78.1329 80.95 79.5144C81.1262 81.2054 81.1262 82.8476 80.95 84.5386C80.8061 85.9204 80.5003 87.8043 80.2707 88.7254C80.0411 89.6465 79.5111 91.2617 79.0931 92.3147C78.6751 93.3677 77.8696 95.018 77.3033 95.9819C76.7371 96.946 75.5773 98.5952 74.7262 99.6469C73.8751 100.699 72.5088 102.132 71.6902 102.833C70.8712 103.534 69.485 104.59 68.6092 105.18C67.7338 105.77 66.0086 106.723 64.7752 107.298C63.5421 107.872 61.4012 108.645 60.0178 109.015C57.7722 109.615 57.0297 109.687 53.0967 109.687C49.1636 109.687 48.4211 109.615 46.1755 109.015C44.7921 108.645 42.6566 107.875 41.43 107.303C40.2037 106.732 38.4199 105.748 37.4664 105.118C36.5129 104.487 35.4465 103.667 35.0964 103.296L34.4601 102.621L35.9026 101.187L37.3454 99.7528L39.0012 100.966C39.9118 101.633 41.5824 102.643 42.7136 103.209C43.8449 103.775 45.8858 104.527 47.2489 104.88C49.2274 105.392 50.3814 105.524 52.9671 105.534C55.4174 105.544 56.7568 105.414 58.4657 105.001C59.7081 104.701 61.4574 104.15 62.3531 103.777C63.2488 103.403 64.9165 102.492 66.0591 101.753C67.202 101.014 68.9306 99.6124 69.9009 98.6385C70.8709 97.6643 72.2367 96.0014 72.9354 94.943C73.6344 93.8846 74.5738 92.1408 75.0232 91.0679C75.4723 89.9948 76.0702 88.0145 76.3519 86.6668C76.7619 84.7032 76.8363 83.6023 76.7256 81.1247C76.6417 79.2452 76.3763 77.2303 76.0485 75.9856C75.752 74.8597 75.0429 72.9804 74.473 71.8096C73.9029 70.6389 72.8691 68.9355 72.1756 68.0245L70.9145 66.3683L72.372 64.9077L73.8295 63.4468L74.8843 64.6253C75.4646 65.2736 76.475 66.7004 77.1299 67.796ZM118.742 69.6415C117.929 69.8999 116.761 70.4041 116.146 70.7623C115.532 71.1204 114.43 72.0428 113.698 72.8121C112.966 73.5812 112.077 74.7809 111.722 75.4778C111.367 76.1745 110.889 77.3744 110.659 78.1442C110.402 79.0079 110.242 80.4937 110.242 82.0265C110.242 83.5592 110.402 85.0451 110.659 85.9088C110.889 86.6786 111.367 87.8785 111.722 88.5752C112.077 89.2721 112.966 90.4717 113.698 91.2408C114.43 92.0102 115.53 92.9318 116.143 93.2889C116.756 93.646 117.964 94.1567 118.826 94.4236C119.87 94.7467 121.17 94.909 122.713 94.909C124.362 94.909 125.484 94.757 126.604 94.3818C127.47 94.0917 128.487 93.6612 128.864 93.4249C129.241 93.1887 130.023 92.618 130.602 92.1568C131.182 91.6956 131.812 91.0285 132.002 90.6745C132.316 90.0912 132.29 89.9822 131.726 89.5153C131.384 89.2319 131.005 88.9964 130.883 88.9915C130.761 88.9869 130.094 89.4904 129.401 90.1105C128.707 90.7304 127.582 91.5127 126.9 91.8484C125.824 92.3791 125.287 92.4593 122.805 92.4603C120.099 92.4613 119.859 92.417 118.219 91.6144C117.147 91.0898 116.09 90.3177 115.442 89.5852C114.866 88.9349 114.105 87.7942 113.751 87.0507C113.398 86.3068 112.971 84.8722 112.803 83.8625C112.569 82.4547 112.569 81.5983 112.803 80.1905C112.971 79.1807 113.398 77.7461 113.751 77.0023C114.105 76.2587 114.866 75.1181 115.442 74.4678C116.09 73.7353 117.147 72.9631 118.219 72.4386C119.859 71.636 120.099 71.5917 122.805 71.5927C125.287 71.5937 125.824 71.6738 126.9 72.2046C127.582 72.5403 128.707 73.3226 129.401 73.9425C130.094 74.5626 130.761 75.0661 130.883 75.0614C131.005 75.0565 131.384 74.821 131.726 74.5376C132.29 74.0708 132.316 73.9618 132.002 73.3785C131.812 73.0245 131.182 72.3574 130.602 71.8962C130.023 71.435 129.241 70.8643 128.864 70.628C128.487 70.3918 127.47 69.9612 126.604 69.6711C125.448 69.2839 124.392 69.1476 122.625 69.1579C121.045 69.1669 119.712 69.3328 118.742 69.6415ZM138.295 69.4413C138.046 69.6887 137.972 72.5852 137.972 82.0466C137.972 92.4028 138.03 94.3788 138.344 94.6374C138.548 94.8062 139.102 94.9072 139.575 94.8621L140.434 94.7802V82.0265V69.2728L139.526 69.1965C139.026 69.1548 138.472 69.2648 138.295 69.4413ZM181.459 69.6258C180.646 69.8927 179.466 70.4111 178.837 70.7775C178.208 71.1439 177.153 71.9892 176.491 72.656C175.83 73.3228 175.007 74.3462 174.663 74.93C174.319 75.5139 173.779 76.7405 173.462 77.6562C173.01 78.9633 172.886 79.9024 172.886 82.0265C172.886 84.1506 173.01 85.0897 173.462 86.3968C173.779 87.3124 174.314 88.5298 174.651 89.1021C174.989 89.6743 175.755 90.6488 176.354 91.2676C176.952 91.8862 177.978 92.7319 178.634 93.1462C179.29 93.5607 180.625 94.1415 181.601 94.437C183.067 94.8812 183.841 94.9538 186.064 94.8554C188.507 94.7475 188.926 94.6513 190.639 93.807C191.76 93.2544 193.045 92.3508 193.806 91.5794L195.087 90.2816L194.474 89.6323C194.136 89.2752 193.725 88.983 193.559 88.983C193.393 88.983 192.766 89.4478 192.165 90.0162C191.564 90.5843 190.467 91.3666 189.726 91.7543C188.495 92.3987 188.133 92.4595 185.528 92.4603C182.981 92.4613 182.52 92.3881 181.206 91.776C180.398 91.3988 179.205 90.6044 178.557 90.0103C177.909 89.4162 177.033 88.2428 176.61 87.4029C176.188 86.5627 175.704 85.2123 175.535 84.4018C175.365 83.5909 175.289 82.1172 175.366 81.1247C175.442 80.1328 175.758 78.6508 176.067 77.8314C176.377 77.0118 177.003 75.8558 177.458 75.2624C177.914 74.6688 178.775 73.8126 179.372 73.3599C179.969 72.9072 181.132 72.2842 181.956 71.9756C183.214 71.5046 183.849 71.4311 185.917 71.519C187.949 71.6051 188.614 71.7437 189.726 72.3136C190.467 72.6931 191.564 73.4686 192.165 74.0368C192.766 74.6051 193.393 75.0699 193.559 75.0699C193.725 75.0699 194.136 74.7778 194.474 74.4207L195.087 73.7714L193.806 72.4736C193.042 71.6994 191.759 70.7984 190.627 70.24C188.839 69.3586 188.561 69.2999 185.833 69.2226C183.528 69.1571 182.634 69.2396 181.459 69.6258ZM200.814 69.4503C200.742 69.6361 200.714 75.3533 200.751 82.1553L200.818 94.5225L208.821 94.5908C214.676 94.6405 216.923 94.5774 217.192 94.355C217.404 94.1801 217.528 93.714 217.483 93.2562L217.405 92.4613L210.216 92.3928L203.027 92.3242L202.959 80.7985L202.892 69.2728L201.918 69.1927C201.291 69.1412 200.897 69.2331 200.814 69.4503ZM148.919 69.6155C148.662 69.7775 148.607 72.4883 148.66 82.3009L148.727 94.7802H149.893H151.059L151.129 89.1763L151.199 83.5724L155.665 83.5726L160.13 83.5732L162.981 89.1765L165.832 94.7802L166.838 94.8621C167.391 94.9072 167.95 94.8387 168.08 94.7096C168.221 94.5686 167.233 92.2495 165.603 88.8993L162.891 83.3235L163.934 83.0128C164.508 82.842 165.536 82.2032 166.218 81.5934C166.914 80.9712 167.653 80.0032 167.903 79.3876C168.177 78.7098 168.345 77.6016 168.342 76.487C168.34 75.4438 168.169 74.2893 167.937 73.7484C167.716 73.2342 167.227 72.4491 166.851 72.0042C166.474 71.5592 165.682 70.9164 165.092 70.576C164.501 70.2354 163.326 69.8319 162.48 69.6791C161.634 69.5266 158.31 69.4034 155.094 69.4055C151.877 69.4078 149.098 69.5021 148.919 69.6155ZM222.319 69.7201C222.25 69.8992 222.224 75.553 222.261 82.2841L222.329 94.5225H230.464C237.63 94.5225 238.63 94.4736 238.86 94.1116C239.004 93.8854 239.043 93.3927 238.948 93.0166L238.776 92.3325H231.654H224.532V87.5722V82.8118L228.873 82.7412L233.213 82.6706V81.64V80.6094L228.873 80.5388L224.532 80.4682V76.0944V71.7205H231.654H238.776L238.948 71.0364C239.043 70.6603 239.004 70.1676 238.86 69.9414C238.632 69.582 237.586 69.522 230.522 69.4624C224.2 69.4091 222.418 69.465 222.319 69.7201ZM162.71 72.0062C163.273 72.1616 164.108 72.6607 164.565 73.1151C165.026 73.5735 165.532 74.4431 165.701 75.0671C165.869 75.6862 165.932 76.6851 165.841 77.2873C165.75 77.8891 165.419 78.767 165.104 79.2379C164.789 79.7089 164.012 80.3549 163.377 80.6738C162.288 81.2208 161.913 81.2535 156.706 81.2535H151.189V76.487V71.7205L156.437 71.722C159.447 71.7228 162.122 71.8439 162.71 72.0062Z" fill="#52555B"/>
</svg>
