<svg width="254" height="163" viewBox="0 0 254 163" fill="none" xmlns="http://www.w3.org/2000/svg">
<path fill-rule="evenodd" clip-rule="evenodd" d="M83.6784 73.2672V97.5345H87.9267H92.1749V73.2672V49H87.9267H83.6784V73.2672ZM171.956 73.3103V97.5345H176.247H180.538V88.7222C180.538 80.1134 180.541 79.9139 180.697 80.08C180.784 80.1735 183.676 84.2263 187.124 89.0862C190.571 93.9461 193.438 97.9733 193.494 98.0355C193.577 98.1276 194.328 97.8884 197.551 96.7434L201.506 95.3383L201.154 94.8924C200.96 94.6472 198.03 90.9506 194.642 86.6777C191.254 82.4048 188.482 78.8737 188.482 78.8309C188.482 78.788 190.719 76.3195 193.452 73.3452C196.186 70.3709 198.658 67.6802 198.946 67.3659L199.468 66.7944L196.237 65.388C194.416 64.5953 192.983 64.0178 192.953 64.0646C192.924 64.1102 190.339 67.1596 187.21 70.8409L181.519 77.5345H181.029H180.538V63.3103V49.0862H176.247H171.956V73.3103ZM210.934 56.3299C210.041 56.5573 209.33 57.1653 208.93 58.0414C208.47 59.0511 208.711 60.4098 209.496 61.2249C210.121 61.8742 210.58 62.0606 211.55 62.0591C212.256 62.0579 212.41 62.0295 212.782 61.8306C213.326 61.5395 213.803 61.0542 214.08 60.5086C214.395 59.8888 214.444 58.81 214.188 58.1217C213.716 56.8528 212.186 56.0105 210.934 56.3299ZM212.549 56.8937C214.322 57.7902 214.378 60.4842 212.644 61.4587C212.249 61.6807 212.1 61.7153 211.548 61.7134C210.994 61.7115 210.847 61.6759 210.443 61.4459C208.665 60.4323 208.789 57.6939 210.652 56.8353C211.181 56.5917 212.002 56.617 212.549 56.8937ZM210.764 57.5962L210.53 57.6322V59.2643V60.8966H210.743C210.953 60.8966 210.955 60.8887 210.955 60.1526V59.4086L211.346 59.4534C211.85 59.5109 211.989 59.6611 212.145 60.3171C212.259 60.8003 212.295 60.8561 212.506 60.8807C212.775 60.9122 212.77 60.9403 212.615 60.2079C212.527 59.7899 212.437 59.5958 212.257 59.4393C212.078 59.2833 212.048 59.2193 212.14 59.1884C212.412 59.0963 212.654 58.7478 212.654 58.4484C212.654 57.756 211.909 57.4202 210.764 57.5962ZM211.78 57.9698C212.095 58.0813 212.257 58.3993 212.147 58.6927C212.041 58.9735 211.811 59.0862 211.343 59.0862H210.955V58.5403C210.955 58.2399 210.981 57.9684 211.012 57.9368C211.097 57.8506 211.491 57.8675 211.78 57.9698ZM30.2388 63.7489C28.687 63.9005 27.0141 64.3812 25.6903 65.056C23.3266 66.2609 21.6935 68.2247 21.0482 70.638C20.7745 71.6613 20.77 73.8766 21.0394 74.8728C21.6327 77.0659 23.2102 79.0004 26.3238 81.3534C31.3181 85.1278 31.7785 85.5058 32.408 86.3496C32.9538 87.0815 33.1947 87.645 33.3127 88.4659C33.5057 89.8096 33.1495 91.0405 32.3263 91.8747C31.4263 92.7868 30.3567 93.169 28.7065 93.1681C26.6465 93.167 25.0158 92.4952 22.7003 90.6939L21.7496 89.9543L20.3748 92.2114L19 94.4685L19.2864 94.7156C20.2228 95.5236 22.2314 96.6978 23.582 97.2267C26.846 98.5052 31.4159 98.6285 34.7644 97.5285C35.1944 97.3872 36.0049 97.0435 36.5657 96.7647C39.2438 95.433 40.9711 93.3704 41.6819 90.6557C41.8751 89.9178 41.901 89.651 41.9012 88.3966C41.9019 84.4213 40.65 82.6613 34.4635 77.94C31.4301 75.625 29.933 74.2635 29.4889 73.416C28.6373 71.7904 29.2086 69.9653 30.8306 69.1299C32.6856 68.1745 35.466 68.5092 37.9171 69.9829C38.2867 70.2051 38.6201 70.3552 38.6582 70.3166C38.6964 70.2778 39.2598 69.3742 39.9103 68.3084L41.0931 66.3707L40.911 66.2184C40.5572 65.9225 38.3377 64.8721 37.4153 64.564C35.1799 63.8173 32.5714 63.5211 30.2388 63.7489ZM63.287 63.8663C59.8097 64.3737 57.1468 65.9414 54.6402 68.9569L54.2819 69.3879L54.2813 67.6122C54.281 66.6354 54.2561 65.5396 54.2258 65.1768L54.1709 64.5172H50.0626H45.9543V89.2586V114H50.075H54.1958V103.569C54.1958 97.8319 54.2103 93.1379 54.2282 93.1379C54.2459 93.1379 54.8482 93.7301 55.5664 94.4538C57.7971 96.7017 59.442 97.6678 61.7918 98.1103C62.8758 98.3144 65.5736 98.3139 66.6856 98.1092C69.8828 97.521 72.4364 96.1883 74.6343 93.9606C76.0281 92.5481 76.9546 91.209 77.9095 89.2272C79.3273 86.2848 79.9447 83.159 79.8275 79.5172C79.7276 76.4124 79.156 73.9586 77.9754 71.5667C76.0042 67.5731 72.5332 64.849 68.3267 63.9941C67.1498 63.7548 64.5095 63.6879 63.287 63.8663ZM152.754 63.837C149.57 64.2029 146.991 65.5003 144.466 68.0074C143.964 68.5059 143.539 68.9138 143.523 68.9138C143.507 68.9138 143.493 67.9246 143.493 66.7155V64.5172H139.203H134.912V81.0259V97.5345H139.203H143.493L143.494 87.6853C143.494 81.3661 143.527 77.4809 143.585 76.8448C143.812 74.3699 144.411 72.8753 145.695 71.5823C146.229 71.0453 146.497 70.8553 147.233 70.4922C147.723 70.2503 148.353 69.9916 148.634 69.9172C150 69.5547 151.786 69.5335 153.062 69.8647C154.944 70.3532 156.269 71.6569 156.913 73.6552C157.384 75.1187 157.375 74.8746 157.406 86.6078L157.435 97.4483H161.679H165.924L165.924 86.2198C165.924 75.0287 165.9 73.935 165.622 72.3621C165.462 71.4603 165.054 70.0897 164.725 69.3544C164.184 68.1418 163.035 66.7104 161.931 65.8716C160.511 64.7935 158.532 64.0533 156.475 63.8307C155.522 63.7276 153.679 63.7307 152.754 63.837ZM97.8683 75.7026C97.8687 82.4222 97.9028 87.2837 97.9538 87.8793C98.0632 89.1576 98.3377 90.7815 98.5572 91.449C99.0697 93.0068 99.9625 94.4825 100.998 95.4838C102.393 96.8322 104.176 97.6958 106.406 98.1037C107.683 98.3372 110.639 98.3199 111.973 98.0713C114.857 97.5341 117.126 96.277 119.43 93.9391C119.864 93.4985 120.237 93.1379 120.259 93.1379C120.28 93.1379 120.298 94.1272 120.298 95.3362V97.5345H124.589H128.879V81.0259V64.5172H124.631H120.383L120.381 73.7629C120.38 82.9506 120.332 84.9579 120.087 86.2906C119.335 90.3701 116.441 92.6519 112.311 92.4212C109.046 92.2388 107.159 90.4576 106.561 86.9938C106.441 86.2972 106.419 84.851 106.389 75.3578L106.355 64.5172H102.111H97.8675L97.8683 75.7026ZM209.021 67.7877L209.043 70.7282L215.756 74.0444C219.447 75.8683 223.986 78.1077 225.841 79.0208C227.696 79.934 229.216 80.7029 229.218 80.7297C229.22 80.7564 224.682 83.0493 219.133 85.8251L209.043 90.8718L209.021 93.7291C209.009 95.3005 209.012 96.5862 209.029 96.5862C209.045 96.5862 214.895 93.637 222.029 90.0324L235 83.4786V80.7839V78.0891L221.999 71.4681L208.999 64.8472L209.021 67.7877ZM64.5615 69.0964C67.2915 69.7295 69.4106 72.2072 70.2962 75.8018C70.7572 77.6729 70.945 80.1821 70.7711 82.1466C70.3782 86.5832 69.28 89.43 67.179 91.4587C65.9003 92.6934 64.5424 93.2241 62.6628 93.2241C60.4902 93.2241 58.8003 92.5514 57.3735 91.1185C55.8378 89.5762 54.8612 87.451 54.3936 84.6341C54.2674 83.8731 54.2388 83.2312 54.2412 81.1983C54.2442 78.4641 54.3088 77.8587 54.7949 76.0009C56.174 70.7303 59.9859 68.0354 64.5615 69.0964Z" fill="#52555B"/>
</svg>
