<svg width="254" height="163" viewBox="0 0 254 163" fill="none" xmlns="http://www.w3.org/2000/svg">
<path fill-rule="evenodd" clip-rule="evenodd" d="M145.627 38.6425C140.803 43.1822 135.82 48.9806 135.82 50.0546C135.82 51.7738 149.843 63.67 151.869 63.67C153.231 63.67 165.833 49.9328 165.833 48.4486C165.833 46.954 151.868 35 150.121 35C149.778 35 147.756 36.6389 145.627 38.6425ZM51.1427 39.8936C49.8705 40.4891 48.4688 41.3845 48.027 41.8832C46.9034 43.1517 45.4656 46.6151 45.0863 48.9679C44.7697 50.9288 44.7542 50.9429 43.6531 50.22C43.0412 49.8177 42.3448 49.61 42.1056 49.758C41.579 50.0847 38.2766 56.9683 38.2832 57.7264C38.2855 58.0225 40.3808 59.7196 42.9389 61.4977C48.693 65.4969 50.5176 67.3247 50.5692 69.1403C50.6105 70.5954 47.3827 78.6818 41.6836 91.4C39.7721 95.6652 37.0363 101.786 35.6041 105L33 110.846L34.0636 111.709C35.0155 112.481 35.9398 112.558 42.8667 112.444L50.6063 112.315L53.7051 106.831C55.4097 103.814 56.9244 101.226 57.0712 101.078C57.2185 100.931 59.2589 101.456 61.606 102.245L65.8734 103.679L66.9403 108.115L68.0071 112.55L72.7215 112.547C75.3143 112.545 78.86 112.409 80.6013 112.244L83.7667 111.944L83.77 103.904C83.7728 96.9004 84.4588 72.0308 84.8143 66.0332L84.9391 63.9309L79.3116 62.6299C65.2136 59.3709 61.4146 58.3576 59.3334 57.3006C56.8522 56.0405 55.6297 54.6117 55.6297 52.9719C55.6297 51.5012 57.3104 48.2902 58.4541 47.5739C58.9644 47.2548 59.3813 46.8041 59.3813 46.5719C59.3813 46.1531 54.3316 39.3531 53.7557 38.9964C53.5907 38.894 52.4145 39.2977 51.1427 39.8936ZM156.466 45.6056C157.065 47.1866 157.056 52.7223 156.453 53.0959C155.798 53.5011 151.296 50.9729 151.296 50.2003C151.296 49.3806 152.232 49.4205 153.378 50.29C154.791 51.3607 155.047 51.1417 155.047 48.865C155.047 47.7018 154.831 46.75 154.568 46.75C154.304 46.75 152.383 48.3475 150.3 50.3004C148.112 52.3515 146.187 53.7882 145.742 53.7022C144.861 53.5321 144.394 51.7823 144.324 48.395C144.25 44.7976 144.645 44.509 147.509 46.0709C149.083 46.93 149.872 47.6463 149.772 48.1271C149.689 48.5327 149.269 48.8053 148.84 48.7325C147.927 48.5769 146.137 49.9789 146.137 50.8493C146.137 52.101 147.458 51.3386 151.203 47.925C153.33 45.9862 155.282 44.4 155.54 44.4C155.797 44.4 156.214 44.9424 156.466 45.6056ZM146.137 47.9527C146.137 48.3555 146.348 48.5548 146.606 48.395C146.864 48.2352 147.075 47.9057 147.075 47.6623C147.075 47.4188 146.864 47.22 146.606 47.22C146.348 47.22 146.137 47.5499 146.137 47.9527ZM197.253 48.4876C191.574 50.5354 167.704 60.6352 166.628 61.446C165.923 61.9766 165.995 62.6341 167.481 69.31C170.395 82.4014 177.213 109.721 177.749 110.456C178.218 111.1 179.215 111.1 187.411 110.455C192.437 110.06 197.815 109.735 199.363 109.733L202.177 109.73L202.01 115.37C201.855 120.617 201.904 121.008 202.714 120.985C203.192 120.971 207.051 119.737 211.289 118.244C216.64 116.358 219.198 115.222 219.66 114.525C220.285 113.581 220.196 113.447 218.125 112.214C216.915 111.494 215.635 110.693 215.28 110.435C214.752 110.05 215.058 108.911 216.975 104.141C220.57 95.1934 220.745 95.3424 206.163 94.9429C200.102 94.7769 194.688 94.5476 194.134 94.4334C193.13 94.2266 191.681 91.3286 192.431 91.0282C192.633 90.9474 195.32 89.8871 198.402 88.6716L204.006 86.4622L204.575 82.4686C204.889 80.2723 205.071 78.4003 204.98 78.3086C204.889 78.2174 203.134 77.8504 201.08 77.4932C199.026 77.136 196.052 76.281 194.47 75.5939L191.595 74.3437L189.507 76.5269C188.359 77.7277 187.246 78.71 187.032 78.71C186.274 78.71 184.477 76.673 183.798 75.0426C183.008 73.1471 183.33 70.3445 184.386 69.9389C184.76 69.7946 186.473 70.2763 188.193 71.009C190.572 72.0224 191.37 72.1925 191.527 71.7211C192.056 70.1297 196.354 65.143 198.794 63.2893C200.652 61.8774 201.436 60.983 201.282 60.4514C201.158 60.0242 200.825 57.2601 200.541 54.3085C200.257 51.3574 199.916 48.7663 199.783 48.551C199.518 48.1215 198.35 48.0923 197.253 48.4876ZM121.375 71.0373C117.17 74.4819 113.551 77.3 113.334 77.3C113.116 77.3 110.388 74.6389 107.27 71.3865L101.6 65.4734L98.8969 67.0023C94.3045 69.6005 88.9251 73.14 88.9251 73.564C88.9251 73.9842 94.6735 83.6652 96.6825 86.6281C97.3165 87.5634 97.8352 88.5697 97.8352 88.8644C97.8352 89.1595 95.286 92.1793 92.1703 95.575C89.0546 98.9703 86.5747 101.939 86.6601 102.171C86.8988 102.823 98.4833 113.486 98.9546 113.488C99.4048 113.49 104.163 109.318 110.369 103.48C112.839 101.156 114.476 99.9432 114.843 100.165C115.161 100.359 117.953 102.449 121.048 104.81C128.283 110.33 132.287 113.02 133.268 113.02C133.973 113.02 144.416 105.92 144.925 105.094C145.042 104.905 144.593 102.576 143.928 99.9178C142.945 95.9886 142.579 95.1318 141.966 95.3325C141.552 95.4683 140.197 95.9374 138.956 96.375C137.084 97.0353 136.387 97.0771 134.872 96.6226C132.496 95.9092 129.372 93.4981 127.78 91.1504C125.489 87.7725 125.448 87.8647 131.467 82.94C134.469 80.4842 137.671 77.8114 138.582 77.0001L140.24 75.5253L136.74 71.8997C134.816 69.906 132.291 67.4873 131.131 66.5248L129.02 64.775L121.375 71.0373ZM152.233 65.8141C148.236 66.4247 144.25 67.0531 143.376 67.2105L141.788 67.4967L142.086 70.7139C142.519 75.3786 142.549 75.42 145.466 75.42H147.977L148.527 77.4175C149.3 80.2206 148.505 85.3643 146.704 89.2215L145.275 92.2836L146.676 99.4793C147.447 103.437 148.327 106.908 148.631 107.193C149.481 107.988 164.601 110.651 165.149 110.102C165.291 109.959 165.089 104.371 164.699 97.6839C164.309 90.9963 163.764 81.295 163.488 76.125C163.211 70.955 162.883 66.2489 162.759 65.6675C162.474 64.3374 161.851 64.3459 152.233 65.8141ZM68.507 76.3868C68.7753 76.6552 69.0641 79.3671 69.1495 82.4136C69.3019 87.8647 69.2855 87.9648 68.1445 88.7144C67.0645 89.4237 66.7367 89.4081 63.3781 88.4931C61.3945 87.953 59.6565 87.2109 59.5163 86.8443C59.219 86.0688 61.8231 78.1737 62.9387 76.4672C63.6225 75.4219 63.9146 75.3354 65.8584 75.6024C67.0467 75.7655 68.2383 76.1184 68.507 76.3868ZM135.156 80.9961C135.001 81.2471 134.747 82.3892 134.59 83.5345C134.3 85.6566 135.393 90.6099 136.272 91.1542C137.656 92.0119 138.354 84.6564 137.127 82.1349C136.469 80.7813 135.598 80.2789 135.156 80.9961ZM86.5804 124.065V129H88.2217H89.863V124.065V119.13H88.2217H86.5804V124.065ZM93.6146 124.065V129H95.0215C96.3763 129 96.4283 128.922 96.4283 126.885C96.4283 125.722 96.6037 124.77 96.8176 124.77C97.0319 124.77 97.8891 125.722 98.7229 126.885C99.9384 128.581 100.516 129 101.64 129H103.042L102.952 125.234C102.822 119.836 102.631 119.13 101.297 119.13C100.255 119.13 100.18 119.305 100.18 121.715C100.18 123.137 100.013 124.3 99.8099 124.3C99.6064 124.3 98.737 123.137 97.8769 121.715C96.5639 119.544 96.0982 119.13 94.9643 119.13H93.6146V124.065ZM106.276 124.065V129H107.918C109.554 129 109.559 128.993 109.559 126.855C109.559 124.908 109.655 124.724 110.602 124.858C111.297 124.956 111.701 124.73 111.809 124.182C111.931 123.57 111.665 123.36 110.766 123.36C109.872 123.36 109.559 123.117 109.559 122.42C109.559 121.619 109.872 121.48 111.669 121.48C113.607 121.48 113.779 121.384 113.779 120.305C113.779 119.15 113.717 119.13 110.028 119.13H106.276V124.065ZM117.062 124.065V129H118.703H120.345V124.065V119.13H118.703H117.062V124.065ZM124.397 120.892C124.238 121.862 124.104 124.082 124.102 125.827L124.096 129H125.712C127.307 129 127.329 128.971 127.47 126.767L127.614 124.535L129.228 126.767C130.492 128.516 131.127 129 132.159 129H133.475V124.065V119.13H132.092C130.737 119.13 130.706 119.185 130.568 121.832L130.427 124.535L128.623 121.832C127.31 119.866 126.529 119.13 125.754 119.13C124.887 119.13 124.634 119.459 124.397 120.892ZM137.227 124.065V129H138.868H140.51V124.065V119.13H138.868H137.227V124.065ZM144.261 120.775C144.261 122.289 144.373 122.42 145.668 122.42H147.075V125.71V129H148.716H150.358V125.71V122.42H151.999C153.562 122.42 153.64 122.342 153.64 120.775V119.13H148.951H144.261V120.775ZM155.831 119.717C156.068 120.041 157.079 121.337 158.079 122.597C159.999 125.019 159.98 124.795 158.572 128.177C158.28 128.878 158.498 129 160.047 129H161.865L163.966 124.455C165.122 121.955 166.138 119.734 166.224 119.52C166.31 119.305 165.544 119.13 164.522 119.13C162.9 119.13 162.59 119.309 162.081 120.54C161.761 121.315 161.405 121.95 161.291 121.95C161.176 121.95 160.55 121.315 159.899 120.54C158.995 119.463 158.324 119.13 157.058 119.13C155.816 119.13 155.509 119.277 155.831 119.717Z" fill="#52555B"/>
</svg>
