<svg width="255" height="164" viewBox="0 0 255 164" fill="none" xmlns="http://www.w3.org/2000/svg">
<path fill-rule="evenodd" clip-rule="evenodd" d="M64.8141 35.0667C63.3613 35.1536 61.6734 35.3794 60.0742 35.7008C53.1937 37.0832 46.9527 40.4802 41.9927 45.5424C40.7476 46.8133 40.028 47.648 38.9905 49.0249C32.6771 57.4041 30.4949 68.217 33.039 78.5157C35.2353 87.4071 41.0617 95.2641 48.9776 100.01C53.1202 102.493 57.4902 104.03 62.3698 104.719C64.2699 104.987 67.8645 105.089 69.7735 104.928C74.3954 104.539 78.463 103.424 82.5263 101.433C91.3624 97.1027 98.0207 89.2082 100.739 79.8386C103.654 69.7942 101.99 59.0932 96.1708 50.4474C94.0659 47.3203 91.21 44.3171 88.1942 42.0595C81.3961 36.9704 73.3285 34.5574 64.8141 35.0667ZM106.828 35.0993C104.581 35.602 102.946 37.1377 102.317 39.3361C102.182 39.8056 102.156 40.0643 102.16 40.8566C102.164 41.6795 102.191 41.8974 102.354 42.4342C102.69 43.5414 103.172 44.3184 104.015 45.1125C105.107 46.1406 106.429 46.6525 107.996 46.6541C110.235 46.6563 112.224 45.429 113.209 43.438C113.645 42.5565 113.813 41.8553 113.818 40.892C113.834 38.2108 112.121 35.9296 109.542 35.196C108.835 34.995 107.506 34.9477 106.828 35.0993ZM141.649 57.2993V70.0645H143.983H146.317L146.345 65.3085C146.375 59.969 146.363 60.1032 146.909 58.9624C147.396 57.9447 148.225 57.2604 149.234 57.0443C149.83 56.9169 150.899 56.9944 151.32 57.1956C151.786 57.4179 152.345 57.9816 152.58 58.4662C153.026 59.3855 153.013 59.2172 153.054 64.8665L153.092 70.0292L155.415 70.0478L157.738 70.0664L157.712 64.2841C157.684 58.0388 157.698 58.2829 157.296 57.0518C156.605 54.9377 155.064 53.4483 153 52.8986C152.396 52.7377 152.175 52.7155 151.179 52.7157C150.239 52.7159 149.948 52.7421 149.478 52.8691C148.319 53.1821 147.179 53.8651 146.605 54.5902L146.325 54.9429V49.7385V44.5341H143.987H141.649V57.2993ZM69.8028 46.8329C76.2922 47.648 81.9023 50.8884 85.8016 56.0737C88.2683 59.3541 89.7701 63.1522 90.299 67.4478C90.437 68.5685 90.4142 71.7855 90.2604 72.8934C89.8598 75.7787 89.1306 78.1244 87.8563 80.6267C86.8006 82.6997 85.4537 84.5698 83.8066 86.2492C79.9078 90.2244 75.1621 92.5407 69.561 93.2022C68.4162 93.3374 65.4014 93.3163 64.2473 93.165C58.9361 92.4686 54.28 90.2026 50.5703 86.5083C48.6196 84.5658 47.2219 82.6008 46.0053 80.0903C42.0394 71.9063 43.2491 62.1264 49.0972 55.0951C49.8588 54.1795 51.5918 52.4855 52.5146 51.7546C56.1789 48.8524 60.5985 47.1165 65.31 46.7292C66.3614 46.6428 68.723 46.6973 69.8028 46.8329ZM128.188 50.6869V53.0207H126.488H124.787V55.0716V57.1225H126.488H128.188V60.8657C128.188 63.1314 128.218 64.8271 128.264 65.162C128.356 65.8369 128.687 66.8522 128.982 67.3662C129.74 68.69 131.1 69.6478 132.767 70.0338C133.901 70.2964 135.95 70.285 137.115 70.0099L137.647 69.8843L137.665 67.8174C137.676 66.6807 137.665 65.7505 137.641 65.7505C137.617 65.7505 137.417 65.8058 137.197 65.8732C136.893 65.9661 136.547 65.9954 135.769 65.9939C134.863 65.9922 134.693 65.9725 134.325 65.8273C133.527 65.512 133.074 64.898 132.938 63.9471C132.899 63.6749 132.866 62.0279 132.866 60.2873L132.864 57.1225H135.274H137.684L137.665 55.0893L137.647 53.0561L135.255 53.0375L132.864 53.0188V50.686V48.3531H130.526H128.188V50.6869ZM169.564 52.7114C167.92 52.9194 166.473 53.4378 165.278 54.2469C164.671 54.6572 163.612 55.7029 163.2 56.2971C162.133 57.838 161.625 59.5024 161.619 61.4734C161.607 65.9491 164.291 69.3471 168.52 70.2103C171.694 70.8581 175.07 69.9266 177.201 67.815C178.094 66.9307 178.942 65.5737 179.166 64.672L179.215 64.4776H176.767C174.357 64.4776 174.32 64.4797 174.274 64.6235C174.188 64.8927 173.434 65.5846 172.974 65.8167C172.019 66.2976 170.624 66.4538 169.458 66.2103C168.386 65.9865 167.301 65.2646 166.809 64.4491C166.545 64.0107 166.276 63.3138 166.213 62.904L166.172 62.6388H172.792H179.412L179.411 61.8078C179.41 59.1515 178.494 56.8136 176.8 55.1399C175.183 53.5429 173.264 52.7632 170.804 52.7039C170.258 52.6908 169.7 52.6941 169.564 52.7114ZM171.76 56.6943C172.825 57.0606 173.674 57.8855 174.093 58.9613L174.299 59.4917L170.362 59.5099C168.196 59.5201 166.409 59.5131 166.39 59.4946C166.313 59.4178 166.702 58.5681 167.023 58.112C167.551 57.3621 168.258 56.8859 169.234 56.6222C169.93 56.4344 171.102 56.4679 171.76 56.6943ZM204.917 80.602V93.3319H207.251H209.585L209.611 88.6112C209.637 84.007 209.642 83.8758 209.795 83.2938C210.243 81.5906 211.298 80.5348 212.773 80.3131C214.444 80.0621 215.637 80.8612 216.164 82.5854C216.268 82.9268 216.284 83.5662 216.306 88.1515L216.33 93.3319H218.665H221L221 87.8686C220.999 82.0903 220.986 81.8097 220.657 80.6722C219.986 78.3544 218.458 76.7954 216.289 76.2156C215.476 75.9986 214.021 75.9483 213.173 76.108C211.882 76.3513 210.746 76.9499 209.986 77.7882L209.593 78.2216V73.0469V67.8722H207.255H204.917V80.602ZM132.06 76.1134C128.75 76.7381 126.222 79.37 125.519 82.9229C125.354 83.7581 125.357 85.5139 125.526 86.2951C126.299 89.8812 128.825 92.4589 132.143 93.0481C132.803 93.1654 134.155 93.1468 134.814 93.0113C136.03 92.7612 137.063 92.2359 137.844 91.4708L138.336 90.9886L138.302 92.4255C138.276 93.5201 138.238 93.9549 138.144 94.2512C137.866 95.1265 137.425 95.7486 136.761 96.1994C136.088 96.656 135.6 96.8072 134.66 96.8495C132.844 96.9315 131.585 96.2893 130.917 94.9398L130.646 94.3927H128.359H126.072L126.11 94.6579C126.231 95.4935 126.575 96.4694 126.999 97.1834C127.391 97.843 128.369 98.8415 129.096 99.3247C130.118 100.003 131.461 100.493 132.819 100.681C133.598 100.789 135.328 100.775 136.123 100.655C139.431 100.153 141.744 98.238 142.6 95.2916C142.996 93.927 142.996 93.9315 142.996 84.7832V76.3587H140.658H138.32V77.2607V78.1627L137.765 77.6262C137.322 77.1981 137.06 77.0159 136.472 76.7249C136.066 76.5242 135.479 76.2932 135.167 76.2115C134.413 76.0139 132.849 75.9646 132.06 76.1134ZM167.25 76.1052C165.661 76.4074 164.274 77.1597 163.1 78.3563C161.986 79.4918 161.238 80.8835 160.794 82.6498C160.623 83.3301 160.606 83.5196 160.604 84.8099C160.602 85.9041 160.63 86.3555 160.727 86.8037C161.139 88.7092 162.049 90.3782 163.349 91.6101C165.261 93.4236 167.9 94.1389 170.308 93.4963C171.297 93.2323 172.484 92.5476 173.09 91.892L173.39 91.567V92.4494V93.3319H175.763H178.137L178.119 84.863L178.101 76.3941H175.763H173.425L173.405 77.2657L173.385 78.1373L172.825 77.6108C172.169 76.9951 171.342 76.5355 170.374 76.2492C169.591 76.0176 168.077 75.9478 167.25 76.1052ZM191.598 76.1106C190.412 76.3481 189.331 76.8884 188.507 77.6543L187.989 78.1366L187.969 77.2654L187.949 76.3941H185.611H183.273V88.4167V100.439H185.611H187.949L187.967 96.0006L187.986 91.5618L188.383 91.9588C189.167 92.7413 190.239 93.303 191.492 93.5871C192.201 93.748 193.607 93.7501 194.328 93.5914C197.589 92.8734 199.991 90.2576 200.713 86.6398C200.885 85.7744 200.886 83.9173 200.713 83.0533C200.085 79.9048 198.075 77.4169 195.359 76.4276C194.255 76.0252 192.685 75.893 191.598 76.1106ZM156.421 76.1959C155.145 76.3649 153.771 77.2846 153.109 78.413L152.844 78.8661V77.6124V76.3587H150.506H148.168V84.8453V93.3319H150.503H152.838L152.861 88.6819C152.886 83.5133 152.868 83.7168 153.382 82.6663C153.855 81.6987 154.763 80.9954 155.784 80.8061C156.472 80.6784 157.514 80.7807 158.458 81.0688C158.575 81.1043 158.582 80.9611 158.582 78.7374C158.582 76.5425 158.573 76.3655 158.458 76.3308C157.97 76.1833 157.001 76.1191 156.421 76.1959ZM135.238 80.3541C135.906 80.4729 136.777 80.8824 137.271 81.3093C137.73 81.7064 138.259 82.5214 138.466 83.1515C138.695 83.8511 138.715 85.2911 138.504 85.9061C138.239 86.6778 137.958 87.1323 137.407 87.677C136.558 88.5157 135.618 88.8947 134.387 88.8947C133.178 88.8947 132.189 88.4888 131.335 87.6417C129.407 85.7296 129.798 82.2722 132.097 80.9017C133.058 80.3292 134.088 80.1496 135.238 80.3541ZM170.697 80.4237C172.115 80.8023 173.174 81.9087 173.61 83.4694C173.732 83.904 173.767 84.2171 173.766 84.8453C173.763 86.3334 173.383 87.3294 172.47 88.242C171.858 88.8542 171.428 89.105 170.656 89.3023C169.627 89.5649 168.359 89.4311 167.486 88.9678C167.285 88.8608 166.879 88.5339 166.585 88.2413C165.673 87.3355 165.29 86.3289 165.29 84.8453C165.289 82.4437 166.642 80.7121 168.825 80.3188C169.272 80.2384 170.197 80.2901 170.697 80.4237ZM192.693 80.3537C193.942 80.5758 194.992 81.3691 195.556 82.5176C195.975 83.3705 196.088 83.8729 196.088 84.8807C196.089 86.2653 195.725 87.2704 194.907 88.1442C194.124 88.9809 193.296 89.3611 192.123 89.4234C190.126 89.5295 188.582 88.5249 187.908 86.6799C187.408 85.3129 187.513 83.6577 188.176 82.4408C188.534 81.7831 188.913 81.3617 189.497 80.972C190.445 80.3388 191.482 80.1382 192.693 80.3537ZM95.1385 105.113C94.4382 105.27 93.6549 105.586 93.1181 105.93C92.7757 106.148 89.5715 109.301 80.6266 118.218C74.0095 124.815 68.4386 130.42 68.2467 130.673C67.8071 131.252 67.4351 132.008 67.2445 132.709C67.027 133.509 67.0263 134.888 67.2431 135.644C67.754 137.424 68.8355 138.712 70.4647 139.479C71.2242 139.837 71.7257 139.95 72.7137 139.988C73.4554 140.017 73.7029 139.998 74.237 139.871C75.0621 139.675 75.9016 139.266 76.5519 138.743C77.2604 138.173 100.836 114.598 101.118 114.177C102.465 112.169 102.473 109.53 101.139 107.569C100.983 107.34 100.584 106.895 100.252 106.582C99.5695 105.937 98.7427 105.463 97.8622 105.213C97.1452 105.009 95.8212 104.961 95.1385 105.113Z" fill="#52555B"/>
</svg>
