<svg width="255" height="164" viewBox="0 0 255 164" fill="none" xmlns="http://www.w3.org/2000/svg">
<path fill-rule="evenodd" clip-rule="evenodd" d="M26 75.84V97.68L36.7259 97.6744C44.9764 97.6703 48.0039 97.5389 49.8439 97.1047C51.1594 96.7945 53.3061 96.0295 54.6144 95.4045C55.9284 94.777 58.0508 93.278 59.3573 92.0554C60.8795 90.6303 62.1923 88.9436 63.0426 87.3207C63.7689 85.9346 64.6449 83.708 64.9893 82.3733C65.4004 80.7799 65.6082 78.537 65.594 75.84C65.5813 73.4133 65.3359 70.8172 64.9941 69.4933C64.6759 68.2613 63.8309 66.0553 63.1168 64.5907C62.1912 62.6934 61.1429 61.2987 59.47 59.7374C58.1784 58.5326 56.2597 57.0811 55.2058 56.5118C54.1522 55.9428 51.9917 55.1446 50.4047 54.7385C47.8569 54.0866 46.2583 54 36.7595 54H26V75.84ZM49.4291 63.122C50.9665 63.8265 52.3473 64.8304 53.4199 66.0243C54.3216 67.0282 55.4136 68.7963 55.8463 69.9533C56.2791 71.1106 56.7313 73.1102 56.8514 74.3967C56.9734 75.7056 56.8678 77.772 56.6115 79.088C56.3597 80.3816 55.712 82.2557 55.1729 83.2525C54.6335 84.2497 53.4557 85.7139 52.5558 86.5069C51.6556 87.2998 49.9712 88.3164 48.8124 88.7663C47.0485 89.451 45.7196 89.6119 40.6432 89.7556L34.5807 89.9277V75.8463V61.7646L40.8297 61.905C46.7758 62.0386 47.1925 62.0976 49.4291 63.122ZM76.8501 68.1165C75.7831 68.4958 74.2602 69.2566 73.4659 69.8073C72.672 70.358 71.6785 71.2738 71.2584 71.8423C70.8383 72.4109 70.1366 73.5783 69.699 74.4366C69.2614 75.2949 68.9036 76.2219 68.9036 76.4967C68.9036 76.8095 70.0761 77.3046 72.034 77.8183C73.7558 78.2704 75.3925 78.6381 75.6715 78.6363C75.9502 78.634 76.4568 77.9691 76.7971 77.1582C77.1549 76.3055 77.9282 75.3722 78.6311 74.9444C79.2997 74.5374 80.4715 74.0991 81.2352 73.97C81.9985 73.8408 83.3438 73.9293 84.2246 74.1667C85.1058 74.4042 86.2903 75.0956 86.8582 75.7037C87.5159 76.4086 87.9811 77.4177 88.1415 78.4884C88.2799 79.4121 88.3154 80.2457 88.2202 80.3409C88.1251 80.4365 86.7197 80.2394 85.0972 79.903C83.0368 79.4763 81.2639 79.3598 79.2154 79.5173C77.3205 79.6633 75.6044 80.0557 74.3654 80.6265C73.3107 81.1122 71.9061 82.0679 71.2435 82.7504C70.5813 83.4329 69.8299 84.5932 69.5732 85.329C69.3169 86.0649 69.1099 87.8513 69.1132 89.2994C69.1181 91.4875 69.2916 92.2263 70.1388 93.6734C70.6999 94.631 71.7121 95.8372 72.3885 96.3532C73.0648 96.8695 74.3415 97.5475 75.2249 97.8592C76.1088 98.1713 77.8715 98.4267 79.1422 98.4267C80.4129 98.4267 82.338 98.1635 83.4203 97.842C84.7872 97.4358 85.89 96.7549 87.0324 95.6117L88.6765 93.9665V95.823V97.68H92.4278H96.1791L96.0653 86.5733C95.9593 76.232 95.8978 75.3506 95.1725 73.7826C94.7438 72.8563 93.8216 71.5261 93.1228 70.8269C92.4241 70.1276 90.9277 69.1249 89.798 68.5985C88.0147 67.7674 87.1536 67.627 83.2669 67.5341C79.6638 67.4475 78.4114 67.5613 76.8501 68.1165ZM113.299 68.3778C112.171 68.9135 110.702 69.8786 110.035 70.5226L108.823 71.693V69.7532V67.8133H104.719H100.615V88.9067V110H104.719H108.823V102.318V94.6351L110.392 95.9795C111.255 96.7187 112.796 97.5717 113.817 97.8753C114.838 98.1784 116.704 98.4267 117.963 98.4267C119.222 98.4267 121.164 98.1597 122.279 97.8338C123.393 97.5075 125.114 96.7269 126.102 96.0989C127.09 95.471 128.469 94.2095 129.167 93.2956C129.864 92.3817 130.795 90.6841 131.235 89.5238C131.719 88.2503 132.112 86.1548 132.227 84.24C132.337 82.4275 132.228 80.1509 131.975 78.9316C131.732 77.7571 131.035 75.8004 130.427 74.583C129.819 73.3659 128.558 71.6658 127.625 70.8052C126.692 69.9443 125.143 68.8867 124.184 68.4543C122.913 67.8817 121.478 67.6326 118.896 67.5363C115.695 67.4165 115.153 67.4982 113.299 68.3778ZM149.859 67.7887C149.344 67.9455 148.381 68.3539 147.718 68.697C147.056 69.0401 145.923 69.839 145.202 70.4722L143.892 71.6239V69.7188V67.8133H139.788H135.684V88.9067V110H139.974H144.265V102.516V95.0316L145.664 96.1363C146.433 96.7441 147.866 97.5079 148.848 97.8338C149.83 98.1597 151.701 98.4267 153.006 98.4267C154.342 98.4267 156.457 98.0929 157.85 97.6628C159.43 97.1745 161.025 96.327 162.273 95.3134C163.705 94.1494 164.611 92.9697 165.679 90.8775C167.009 88.2694 167.148 87.7139 167.311 84.3393C167.411 82.2647 167.304 79.791 167.067 78.6848C166.835 77.6033 166.192 75.7922 165.638 74.6603C165.059 73.4761 163.791 71.8338 162.654 70.794C161.496 69.7345 159.823 68.666 158.613 68.2132C157.135 67.6595 155.731 67.449 153.671 67.4721C152.088 67.4897 150.373 67.6323 149.859 67.7887ZM180.548 67.9653C179.676 68.2486 178.124 69.0196 177.098 69.6785C176.071 70.3374 174.725 71.5168 174.106 72.2993C173.486 73.0822 172.567 74.6241 172.063 75.7261C171.559 76.8282 170.988 78.845 170.795 80.208C170.594 81.6323 170.577 83.6912 170.756 85.0498C170.927 86.3497 171.338 88.1693 171.668 89.0933C171.999 90.0173 172.853 91.5715 173.567 92.5474C174.281 93.5229 175.552 94.8195 176.392 95.4284C177.232 96.0373 178.868 96.9098 180.026 97.3668C181.734 98.0406 182.907 98.2015 186.236 98.2187C189.405 98.2351 190.764 98.0783 192.205 97.5299C193.231 97.1394 194.782 96.314 195.652 95.6961C196.522 95.0779 197.815 93.7174 198.525 92.6729C199.235 91.6279 199.92 90.3347 200.048 89.7982C200.271 88.8634 200.138 88.7678 196.823 87.4757C194.921 86.7342 193.344 86.1649 193.318 86.2105C193.291 86.256 192.826 87.0695 192.284 88.0181C191.639 89.1456 190.809 89.9796 189.886 90.4273C189.055 90.8297 187.63 91.1157 186.422 91.122C185.063 91.1287 183.873 90.8738 182.898 90.3664C182.088 89.9453 180.959 89.0239 180.388 88.319C179.818 87.6138 179.243 86.4916 179.109 85.8252L178.867 84.6133H188.95H199.033L199.286 82.4323C199.426 81.2328 199.366 79.3154 199.155 78.1718C198.944 77.0283 198.507 75.4607 198.185 74.6883C197.862 73.9162 197.01 72.5655 196.291 71.6874C195.455 70.6663 194.084 69.6475 192.489 68.8617C190.208 67.7383 189.659 67.6252 186.064 67.5415C183.5 67.4822 181.581 67.6297 180.548 67.9653ZM215.708 67.9444C215.093 68.2259 214.127 68.9225 213.563 69.4926L212.537 70.5286V69.1708V67.8133H208.247H203.957V82.7467V97.68H208.247H212.537V87.3947C212.537 79.2231 212.647 76.898 213.069 76.0808C213.361 75.5148 214.041 74.8514 214.579 74.6061C215.117 74.3609 215.877 74.16 216.268 74.16C216.659 74.16 217.388 74.3467 217.888 74.5744C218.389 74.8025 219.02 75.4047 219.291 75.9124C219.563 76.4205 219.753 77.5779 219.713 78.4847L219.642 80.1333H223.511C226.695 80.1333 227.421 80.0288 227.607 79.5427C227.731 79.2179 227.833 77.7391 227.833 76.2563C227.833 74.0947 227.639 73.1699 226.855 71.5948C226.218 70.315 225.349 69.2805 224.364 68.6283C223.086 67.7812 222.388 67.6117 219.84 67.5292C217.887 67.4661 216.434 67.6121 215.708 67.9444ZM188.703 74.9287C189.698 75.4361 190.39 76.1297 190.741 76.9701C191.033 77.6701 191.272 78.416 191.272 78.6281C191.272 78.8774 189.099 79.0133 185.116 79.0133C181.731 79.0133 178.961 78.8703 178.961 78.6953C178.961 78.5202 179.343 77.809 179.811 77.1142C180.279 76.4198 181.328 75.4738 182.143 75.0119C183.101 74.4687 184.255 74.1701 185.411 74.166C186.49 74.1626 187.795 74.4646 188.703 74.9287ZM119.557 75.3297C120.461 75.7676 121.68 76.7879 122.266 77.5969C122.852 78.4059 123.522 79.9903 123.756 81.1182C124.078 82.6698 124.075 83.6143 123.741 85.0038C123.499 86.0133 122.833 87.4861 122.261 88.2765C121.689 89.0672 120.605 90.0061 119.852 90.3634C119.1 90.7207 117.941 91.1015 117.278 91.209C116.614 91.3169 115.361 91.2139 114.494 90.9802C113.626 90.7465 112.305 90.0177 111.557 89.3606C110.81 88.7039 109.892 87.4929 109.518 86.67C109.117 85.786 108.836 84.2897 108.831 83.0147C108.826 81.8275 109.083 80.2315 109.402 79.4681C109.721 78.7046 110.434 77.5969 110.987 77.0063C111.541 76.4157 112.665 75.6212 113.486 75.2412C114.307 74.8607 115.639 74.546 116.446 74.5415C117.253 74.5371 118.653 74.8917 119.557 75.3297ZM154.251 75.1113C155.011 75.429 156.03 76.0588 156.514 76.5113C156.998 76.9634 157.724 77.9747 158.125 78.7587C158.527 79.5431 158.948 80.9711 159.062 81.9321C159.175 82.8934 159.082 84.3688 158.856 85.2103C158.629 86.0518 158.061 87.3081 157.594 88.0013C157.127 88.695 156.191 89.6358 155.514 90.0924C154.837 90.549 153.57 91.0294 152.698 91.1601C151.824 91.2915 150.376 91.1993 149.468 90.9544C148.413 90.6703 147.265 89.9542 146.273 88.9608C145.363 88.0502 144.553 86.7955 144.31 85.9189C144.082 85.0983 143.896 83.7547 143.896 82.9333C143.896 82.112 144.072 80.8053 144.287 80.0299C144.502 79.2541 145.213 78.0098 145.867 77.2646C146.521 76.5191 147.729 75.6037 148.552 75.2296C149.374 74.8555 150.682 74.546 151.458 74.5415C152.234 74.5371 153.491 74.7932 154.251 75.1113ZM85.8538 85.9797C87.0984 86.321 88.1755 86.6454 88.2475 86.7014C88.3191 86.7574 88.1893 87.3749 87.9591 88.0734C87.7285 88.7719 87.0824 89.7799 86.5228 90.313C85.9632 90.8461 84.6958 91.4845 83.7064 91.7321C82.329 92.0766 81.5691 92.0807 80.4622 91.7489C79.6671 91.5103 78.6718 90.8767 78.2506 90.3406C77.829 89.8045 77.4843 89.006 77.4843 88.5662C77.4843 88.126 77.754 87.3809 78.0838 86.9097C78.4136 86.4386 79.043 85.9077 79.4828 85.7303C79.9227 85.5526 81.0266 85.3966 81.9366 85.3835C82.8465 85.3708 84.6093 85.6389 85.8538 85.9797Z" fill="#52555B"/>
</svg>
