<svg width="254" height="163" viewBox="0 0 254 163" fill="none" xmlns="http://www.w3.org/2000/svg">
<path fill-rule="evenodd" clip-rule="evenodd" d="M57.3905 58.2387C56.7714 58.9198 54.7275 63.3288 52.8481 68.036C50.9684 72.7432 49.2281 77.0505 48.9799 77.6081C48.5689 78.5324 48.2288 78.6216 45.1116 78.6216C41.9122 78.6216 41.6337 78.7004 40.7475 79.8532C40.0535 80.7568 39.8718 81.445 40.0654 82.4374C40.2106 83.1811 40.6018 84.0685 40.9345 84.409C41.2671 84.7496 42.4508 85.1333 43.5649 85.2617C44.6791 85.3905 45.5904 85.6311 45.5904 85.7964C45.5904 85.9622 44.1097 89.7365 42.3003 94.1838C40.4905 98.6315 39.0054 102.942 39.0001 103.764C38.9944 104.585 39.1951 105.65 39.4454 106.129C39.7878 106.783 40.373 107 41.7974 107C43.0902 107 43.9306 106.732 44.4375 106.159C44.8463 105.696 46.9175 100.882 49.0397 95.4608L52.8992 85.6036L56.2614 85.3577C58.671 85.1811 59.8798 84.8743 60.5275 84.2743C61.0718 83.7703 61.4313 82.877 61.4313 82.0306C61.4313 81.2568 61.1228 80.1734 60.7462 79.623C60.1957 78.818 59.6351 78.6216 57.886 78.6216C56.6896 78.6216 55.711 78.5649 55.711 78.495C55.711 78.4257 56.9685 75.1586 58.5051 71.2351L61.2993 64.1014L69.2998 84.5698C73.7 95.8275 77.6022 105.48 77.9709 106.019C78.4871 106.773 79.0886 107 80.5724 107C82.068 107 82.6568 106.775 83.1874 105.999C83.5641 105.448 83.8726 104.567 83.8726 104.039C83.8726 103.512 80.0311 93.5527 75.3361 81.9072C70.641 70.2617 66.481 60.1023 66.0911 59.3306C65.7013 58.559 65.0016 57.7189 64.5356 57.464C64.0701 57.2086 62.5252 57 61.1026 57C58.8466 57 58.3718 57.1586 57.3905 58.2387ZM108.371 58.0135C107.83 58.5712 105.62 63.4356 103.459 68.8243L99.5304 78.6216H96.1017C93.2596 78.6216 92.5226 78.7757 91.793 79.5225C91.309 80.018 90.913 81.009 90.913 81.7248C90.913 82.4405 91.2672 83.4743 91.7002 84.0216C92.2401 84.7041 93.1474 85.0932 94.5845 85.259C95.8712 85.4077 96.6078 85.695 96.4903 86.0027C96.3851 86.2788 94.7751 90.3311 92.9124 95.0077C90.3757 101.376 89.5982 103.807 89.8146 104.69C89.9735 105.338 90.3101 106.123 90.5623 106.434C90.8144 106.745 91.8568 107 92.8785 107C94.0992 107 94.9669 106.73 95.4078 106.212C95.777 105.778 97.8376 100.934 99.9863 95.4473L103.894 85.4707L107.347 85.3068C110.334 85.1649 110.913 84.9995 111.637 84.0842C112.098 83.5023 112.474 82.4405 112.474 81.7248C112.474 81.009 112.078 80.018 111.594 79.5225C110.969 78.8824 110.128 78.6216 108.687 78.6216C106.942 78.6216 106.699 78.5117 106.942 77.8333C107.098 77.3995 108.342 74.1586 109.707 70.6302C111.072 67.1023 112.235 64.2644 112.291 64.3239C112.347 64.3838 115.993 73.6554 120.392 84.9279C124.792 96.2005 128.703 105.778 129.082 106.212C129.483 106.67 130.399 107 131.272 107C132.098 107 133.14 106.799 133.588 106.553C134.037 106.308 134.532 105.509 134.689 104.778C134.92 103.7 133.272 99.2257 125.931 81.0131C120.27 66.9676 116.539 58.282 115.953 57.7883C115.276 57.2185 114.232 57 112.186 57C109.834 57 109.188 57.1716 108.371 58.0135ZM130.76 58.0014C130.384 58.5518 130.077 59.5144 130.079 60.141C130.082 60.7671 134.036 71.091 138.867 83.0833C143.698 95.0757 148.087 105.363 148.62 105.944C149.449 106.846 150.015 107 152.516 107C154.991 107 155.583 106.843 156.345 105.986C156.841 105.429 157.457 104.553 157.715 104.041C157.972 103.527 161.957 93.7459 166.57 82.3036C171.728 69.5095 174.958 60.9203 174.958 59.995C174.958 59.1099 174.626 58.1842 174.153 57.7455C173.71 57.3356 172.636 57 171.765 57C170.63 57 169.954 57.2973 169.38 58.0486C168.938 58.6257 165.019 68.1527 160.669 79.2198C156.32 90.2874 152.657 99.3401 152.529 99.3369C152.401 99.3342 148.732 90.1662 144.376 78.9635C140.02 67.7608 136.109 58.2365 135.685 57.7977C135.208 57.3027 134.257 57 133.18 57C131.886 57 131.271 57.2545 130.76 58.0014ZM183.318 57.3194C182.955 57.4563 182.311 57.877 181.888 58.2545C181.174 58.8919 181.118 60.6032 181.118 82.0369V105.133L182.278 106.066C183.398 106.969 183.93 107 198.24 107C210.927 107 213.184 106.9 214.022 106.299C214.74 105.784 215 105.144 215 103.891C215 102.81 214.705 101.911 214.195 101.439C213.485 100.782 211.881 100.694 200.554 100.694H187.718V93.0572V85.4203L199.419 85.2869C211.112 85.1532 211.119 85.1527 211.959 84.0896C212.421 83.505 212.8 82.5329 212.8 81.9297C212.8 81.3266 212.314 80.3356 211.72 79.7275L210.64 78.6216H199.179H187.718V71.1892V63.7568H200.068C208.522 63.7568 212.721 63.5932 213.379 63.2387C213.907 62.9541 214.486 62.4978 214.663 62.2252C214.841 61.9527 214.989 61.0707 214.993 60.2658C214.997 59.395 214.644 58.4369 214.12 57.9009C213.274 57.0347 212.678 57.0013 198.609 57.0356C190.562 57.055 183.681 57.1829 183.318 57.3194Z" fill="#52555A"/>
</svg>
