<svg width="254" height="163" viewBox="0 0 254 163" fill="none" xmlns="http://www.w3.org/2000/svg">
<g clip-path="url(#clip0)">
<path fill-rule="evenodd" clip-rule="evenodd" d="M16.7222 58.3383C10.6765 60.3721 8 63.7826 8 69.4523C8 72.9195 8.9221 75.2026 11.1262 77.1908C12.9041 78.7946 14.5188 79.6108 19.3944 81.3704C27.8266 84.4137 30.2604 86.3088 30.2098 89.7928C30.1005 97.3744 19.7945 98.0825 14.0122 90.9063C13.1097 89.786 11.5865 87.3507 10.6273 85.4944C9.66819 83.6378 8.76319 82.1171 8.61639 82.1146C8.2633 82.1089 8.26901 96.2812 8.6221 96.4994C8.7721 96.5925 9.77401 96.437 10.849 96.1542C12.5848 95.6975 13.2205 95.7067 16.544 96.2355C23.5232 97.3459 27.249 96.9176 30.9271 94.5832C32.7374 93.4344 34.5143 90.9559 35.1072 88.7523C36.0681 85.1814 35.2472 80.8438 33.1835 78.5875C31.7918 77.0657 28.397 75.0892 24.8322 73.725C16.6135 70.5798 14.5138 69.4231 13.5151 67.4905C12.4274 65.3857 13.0576 62.4541 14.9859 60.6502C16.3869 59.3391 17.6275 58.9337 20.2385 58.9337C24.5087 58.9337 27.9844 61.6821 31.7872 68.066C32.8097 69.7825 33.6577 71.0376 33.6716 70.8547C33.7368 69.9907 33.5487 64.8302 33.3421 61.8137L33.1119 58.4538L30.6178 58.3989C29.2461 58.3689 25.879 58.2352 23.1355 58.1015C19.3648 57.9179 17.7996 57.9756 16.7222 58.3383ZM140.179 58.4941C140.179 58.6695 140.593 59.035 141.1 59.306C141.606 59.5773 142.448 60.5269 142.97 61.4165L143.921 63.0342V76.7619C143.921 84.3121 143.79 91.1071 143.631 91.8619C143.434 92.794 142.823 93.7385 141.727 94.8036L140.114 96.3728H148.348H156.582L155.009 94.8574C154.024 93.9079 153.291 92.8093 153.045 91.9158C152.595 90.2756 152.501 77.475 152.94 77.475C153.578 77.475 155.149 79.6497 157.447 83.7148C158.776 86.0681 160.978 89.8791 162.34 92.1832L164.815 96.3728H170.546H176.277L174.775 94.8574C173.95 94.0241 172.343 91.9782 171.205 90.3112C168.963 87.0287 162.983 77.552 162.983 77.2835C162.983 77.1926 163.153 77.1184 163.361 77.1184C163.57 77.1184 164.628 76.6834 165.714 76.1514C169.722 74.1875 171.656 70.6251 170.843 66.7057C170.124 63.2389 168.33 61.1565 164.528 59.3741L162.448 58.3989L151.314 58.2869C144.913 58.2224 140.179 58.3105 140.179 58.4941ZM156.747 59.9688C160.08 61.5185 162.086 65.0923 162.073 69.4527C162.058 74.2477 159.587 76.7619 154.89 76.7619H152.65V68.0261V59.2903L153.986 59.2981C154.721 59.3024 155.963 59.6041 156.747 59.9688ZM103.411 69.0387C96.0477 71.1153 92.154 79.7934 94.7557 88.3288C96.2675 93.2885 100.773 96.7287 105.758 96.729C108.864 96.7294 110.763 95.834 113.113 93.2611C114.653 91.5749 116.819 87.852 116.466 87.4987C116.389 87.422 115.802 87.759 115.159 88.2475C111.064 91.3631 107.089 91.3506 103.888 88.2122C102.205 86.5609 101.623 85.2901 101.135 82.1994L100.895 80.6841H108.958H117.02L117.016 79.8818C117.002 77.3245 115.152 73.1659 113.222 71.3564C110.759 69.0473 106.744 68.0988 103.411 69.0387ZM233.078 68.9282C226.66 70.5413 222.676 76.9433 223.355 84.552C223.676 88.1412 224.746 90.8051 226.723 92.9306C231.339 97.8939 238.162 98.0451 242.444 93.2786C243.838 91.7268 246.135 87.8313 245.833 87.5293C245.774 87.4702 244.756 88.0485 243.572 88.8144C241.119 90.4011 238.901 90.8643 236.57 90.277C233.484 89.4993 230.872 86.1655 230.431 82.4391L230.223 80.6841H238.112H246L245.996 78.8121C245.99 75.3666 243.408 71.3114 240.199 69.7076C238.385 68.8012 235.041 68.4351 233.078 68.9282ZM37.2093 69.2616C37.2093 69.4505 37.5264 69.7754 37.9137 69.9829C39.4209 70.7902 39.5178 71.4879 39.7034 82.8872C39.8726 93.2768 39.919 93.8769 40.6266 94.8321C41.036 95.3855 42.0332 96.0719 42.842 96.3578C44.8248 97.0588 48.0793 96.4973 51.4424 94.8735L53.9553 93.6601V95.0164V96.3728H59.1216C63.7653 96.3728 65.2521 96.1061 63.7742 95.5388C63.4916 95.4301 62.9707 94.8991 62.6162 94.3582C62.0365 93.4732 61.9542 92.1625 61.7939 81.2353L61.6157 69.0958L57.0027 68.9956C52.0787 68.8882 50.811 69.0569 51.9066 69.6723C52.2497 69.8649 52.8109 70.5363 53.1537 71.1638C53.6977 72.1594 53.7921 73.6066 53.8944 82.5061L54.0116 92.7073L52.5512 93.2921C50.6727 94.0441 49.5932 94.0316 48.624 93.2461C47.8505 92.6193 47.8455 92.5351 47.8829 80.9871C47.9168 70.5944 47.8598 69.3357 47.346 69.1382C46.3908 68.7713 37.2093 68.8829 37.2093 69.2616ZM65.7132 69.1863C65.7132 69.3856 66.1072 69.8071 66.5893 70.123C68.151 71.1471 68.255 72.374 68.1385 88.4197L68.0291 103.465L66.8013 104.732L65.5735 106H72.3104H79.0473L77.8658 105.013C76.7552 104.085 76.6622 103.829 76.3191 100.754C76.1185 98.9547 76.0405 97.2574 76.1459 96.9822C76.2699 96.6595 77.1478 96.4063 78.6204 96.2687C86.6026 95.5228 91.5045 90.0495 91.4724 81.9185C91.455 77.5053 90.6565 75.2786 88.2234 72.8582C86.588 71.2312 85.7225 70.686 83.7062 70.0125C81.49 69.2719 80.3488 69.1596 73.4626 69.0016C68.3384 68.8847 65.7132 68.9471 65.7132 69.1863ZM118.732 69.0997C118.596 69.2391 118.952 69.7468 119.523 70.2279C120.095 70.7092 120.726 71.694 120.927 72.4168C121.406 74.1429 121.404 91.5093 120.925 93.2365C120.712 94.0056 120.08 94.9351 119.413 95.4611L118.267 96.365L124.948 96.3689C128.622 96.371 131.628 96.2755 131.628 96.1567C131.628 96.038 131.233 95.6294 130.75 95.2489C130.267 94.8688 129.706 93.9632 129.505 93.2368C129.29 92.4634 129.137 87.3575 129.136 80.9254C129.134 70.7352 129.179 69.9433 129.745 70.0528C131.254 70.3434 132.697 74.1547 132.697 77.849C132.697 78.8199 132.817 79.6072 132.964 79.5987C133.112 79.5898 134.594 78.8214 136.26 77.8911C139.095 76.3076 139.282 76.1318 139.176 75.1434C138.971 73.2098 137.306 70.9574 135.368 69.9932C133.68 69.1539 133.21 69.1011 126.284 68.977C122.267 68.905 118.868 68.9603 118.732 69.0997ZM185.073 69.0997C184.779 69.1696 183.945 69.3233 183.219 69.4416C182.079 69.6274 181.605 70.0481 179.729 72.5394C178.535 74.1251 177.621 75.485 177.698 75.5617C177.774 75.6383 178.986 74.7637 180.39 73.6184C184.544 70.23 187.712 69.1139 189.136 70.5381C190.149 71.5525 190.581 73.7407 190.09 75.3788C189.54 77.2172 188.061 78.5875 183.745 81.2599C177.987 84.8245 176.181 86.9004 176.181 89.9547C176.181 93.3763 179.522 96.7255 182.935 96.7255C184.161 96.7255 186.22 95.9153 187.941 94.7565C188.95 94.0765 189.841 93.5203 189.919 93.5203C189.997 93.5203 190.061 94.1621 190.061 94.9466V96.3728H195.228C198.069 96.3728 200.394 96.2755 200.394 96.1567C200.394 96.038 199.999 95.6294 199.515 95.2489C199.032 94.8688 198.472 93.9632 198.27 93.2368C198.064 92.4952 197.899 87.928 197.894 82.8234C197.883 72.6161 197.685 71.6127 195.358 69.9519C194.267 69.1731 193.772 69.0901 189.883 69.0341C187.531 69.0002 185.367 69.0298 185.073 69.0997ZM201.819 69.2134C201.819 69.4206 202.153 69.8246 202.562 70.1109C204.052 71.1556 204.281 72.7955 204.289 82.4669C204.293 87.4677 204.148 92.201 203.967 92.9855C203.786 93.7699 203.229 94.7651 202.728 95.1969C202.228 95.6287 201.819 96.0701 201.819 96.1774C201.819 96.2847 204.705 96.3728 208.232 96.3728C211.76 96.3728 214.646 96.2755 214.646 96.1567C214.646 96.038 214.251 95.6294 213.767 95.2489C213.284 94.8688 212.724 93.9632 212.522 93.2368C212.308 92.4638 212.155 87.3657 212.154 80.9515C212.152 69.2198 212.186 69.017 213.853 70.7937C214.794 71.7957 215.715 75.2254 215.715 77.7281C215.715 78.7657 215.802 79.6144 215.91 79.6144C216.184 79.6144 221.111 76.8902 221.845 76.3322C222.417 75.8976 222.415 75.7599 221.81 73.9978C221.012 71.6698 220.252 70.7984 218.209 69.8634C216.797 69.2181 215.722 69.1129 209.212 68.9834C204.164 68.8833 201.819 68.956 201.819 69.2134ZM106.71 69.9989C108.01 70.6957 109.226 73.8505 109.694 77.7424L109.919 79.6144H105.402H100.885L101.109 77.4771C101.736 71.4715 103.947 68.5192 106.71 69.9989ZM236.552 70.4839C237.443 71.3756 238.665 75.0143 239.05 77.9207L239.274 79.6144H234.751H230.227L230.399 77.2019C230.807 71.4997 234.04 67.9697 236.552 70.4839ZM79.1766 71.5357C81.991 74.2107 83.7418 80.6074 83.4369 87.1022C83.1572 93.0625 81.9283 94.963 78.1786 95.2343L76.0458 95.3887V82.9258C76.0458 76.0708 76.1545 70.3537 76.2874 70.2211C76.7021 69.8057 77.9573 70.3769 79.1766 71.5357ZM189.682 92.1483C189.227 93.2475 187.603 94.0494 186.524 93.7068C184.281 92.9944 183.087 88.8226 184.008 84.9157C184.403 83.2381 184.793 82.6776 187.171 80.3756L189.883 77.7499L189.98 84.4718C190.043 88.8016 189.937 91.5335 189.682 92.1483Z" fill="#52555B"/>
</g>
<defs>
<clipPath id="clip0">
<rect width="254" height="163" fill="white"/>
</clipPath>
</defs>
</svg>
