<svg width="255" height="164" viewBox="0 0 255 164" fill="none" xmlns="http://www.w3.org/2000/svg">
<path d="M136.101 97.9328C133.879 97.9328 131.917 97.5576 130.214 96.8072C128.511 96.028 127.169 94.9312 126.188 93.517C125.206 92.074 124.701 90.3279 124.672 88.2787H130.517C130.575 89.6929 131.08 90.8907 132.032 91.8719C133.013 92.8244 134.355 93.3006 136.058 93.3006C137.53 93.3006 138.699 92.9542 139.565 92.2616C140.431 91.54 140.864 90.5876 140.864 89.4043C140.864 88.1633 140.474 87.1965 139.695 86.5038C138.944 85.8111 137.934 85.2483 136.664 84.8154C135.394 84.3825 134.038 83.9207 132.595 83.4301C130.257 82.622 128.468 81.583 127.227 80.3131C126.014 79.0432 125.408 77.3548 125.408 75.248C125.38 73.4586 125.798 71.9289 126.664 70.6591C127.559 69.3603 128.771 68.3646 130.3 67.6719C131.83 66.9504 133.591 66.5896 135.582 66.5896C137.602 66.5896 139.377 66.9504 140.907 67.6719C142.465 68.3935 143.677 69.4036 144.543 70.7023C145.438 72.0011 145.914 73.5452 145.972 75.3345H140.041C140.012 74.2667 139.594 73.3287 138.786 72.5206C138.006 71.6836 136.91 71.2651 135.495 71.2651C134.283 71.2363 133.259 71.5393 132.422 72.1743C131.614 72.7803 131.209 73.675 131.209 74.8583C131.209 75.8685 131.527 76.6766 132.162 77.2827C132.797 77.8599 133.663 78.3505 134.759 78.7546C135.856 79.1586 137.112 79.5916 138.526 80.0533C140.027 80.5728 141.397 81.1789 142.638 81.8716C143.879 82.5643 144.875 83.4878 145.626 84.6422C146.376 85.7678 146.751 87.2253 146.751 89.0147C146.751 90.6021 146.347 92.074 145.539 93.4305C144.731 94.7869 143.533 95.8836 141.946 96.7206C140.358 97.5287 138.41 97.9328 136.101 97.9328Z" fill="#52555B"/>
<path d="M159.508 97.9328C156.824 97.9328 154.746 97.0958 153.274 95.4219C151.831 93.7479 151.11 91.2947 151.11 88.0623V75.9406H156.608V87.5428C156.608 89.3899 156.983 90.8041 157.733 91.7854C158.484 92.7666 159.667 93.2573 161.283 93.2573C162.813 93.2573 164.068 92.7089 165.05 91.6122C166.06 90.5155 166.565 88.9858 166.565 87.0233V75.9406H172.106V97.4133H167.214L166.781 93.7768C166.118 95.0467 165.151 96.0568 163.881 96.8072C162.64 97.5576 161.182 97.9328 159.508 97.9328Z" fill="#52555B"/>
<path d="M186.669 97.9328C184.765 97.9328 183.091 97.6297 181.648 97.0237C180.205 96.3887 179.05 95.5229 178.184 94.4262C177.318 93.3294 176.799 92.0596 176.626 90.6165H182.21C182.384 91.4535 182.845 92.175 183.596 92.7811C184.375 93.3583 185.371 93.6469 186.583 93.6469C187.795 93.6469 188.675 93.4016 189.224 92.911C189.801 92.4203 190.089 91.8575 190.089 91.2226C190.089 90.299 189.685 89.6785 188.877 89.361C188.069 89.0147 186.944 88.6828 185.501 88.3653C184.577 88.1633 183.639 87.918 182.687 87.6294C181.734 87.3408 180.854 86.98 180.046 86.5471C179.267 86.0853 178.632 85.5081 178.141 84.8154C177.65 84.0939 177.405 83.2136 177.405 82.1746C177.405 80.2698 178.155 78.668 179.656 77.3693C181.186 76.0705 183.322 75.4211 186.063 75.4211C188.603 75.4211 190.623 76.0128 192.124 77.1961C193.654 78.3794 194.563 80.01 194.852 82.088H189.613C189.296 80.5007 188.098 79.707 186.02 79.707C184.981 79.707 184.173 79.909 183.596 80.3131C183.047 80.7171 182.773 81.2222 182.773 81.8283C182.773 82.4632 183.192 82.9683 184.029 83.3435C184.866 83.7187 185.977 84.065 187.362 84.3825C188.863 84.7288 190.234 85.1185 191.475 85.5514C192.745 85.9554 193.755 86.5759 194.505 87.4129C195.256 88.221 195.631 89.3899 195.631 90.9195C195.66 92.2471 195.313 93.4449 194.592 94.5127C193.87 95.5806 192.831 96.4176 191.475 97.0237C190.118 97.6297 188.517 97.9328 186.669 97.9328Z" fill="#52555B"/>
<path d="M200.54 97.4133V66.2433H206.081V79.2308C206.803 78.0475 207.769 77.1239 208.982 76.4601C210.223 75.7675 211.637 75.4211 213.224 75.4211C215.879 75.4211 217.928 76.2581 219.372 77.932C220.843 79.606 221.579 82.0592 221.579 85.2916V97.4133H216.081V85.8111C216.081 83.964 215.706 82.5498 214.956 81.5685C214.234 80.5873 213.08 80.0966 211.492 80.0966C209.934 80.0966 208.635 80.645 207.596 81.7417C206.586 82.8384 206.081 84.3681 206.081 86.3306V97.4133H200.54Z" fill="#52555B"/>
<path d="M229.865 72.6072C228.855 72.6072 228.018 72.3041 227.354 71.6981C226.719 71.092 226.402 70.3272 226.402 69.4036C226.402 68.48 226.719 67.7297 227.354 67.1524C228.018 66.5463 228.855 66.2433 229.865 66.2433C230.875 66.2433 231.698 66.5463 232.333 67.1524C232.997 67.7297 233.329 68.48 233.329 69.4036C233.329 70.3272 232.997 71.092 232.333 71.6981C231.698 72.3041 230.875 72.6072 229.865 72.6072ZM227.095 97.4133V75.9406H232.636V97.4133H227.095Z" fill="#52555B"/>
<path fill-rule="evenodd" clip-rule="evenodd" d="M83.1471 55.8028C101.014 68.6333 111.428 84.7022 106.407 91.6936L86.9633 118.77C81.9427 125.761 63.3887 121.028 45.5218 108.197C27.6549 95.3667 17.2409 79.2978 22.2616 72.3064L41.7055 45.2301C46.7262 38.2387 65.2802 42.9723 83.1471 55.8028ZM68.2485 76.5496C76.5993 82.5465 85.2344 84.8102 87.5355 81.6058C89.8367 78.4014 84.9324 70.9423 76.5816 64.9455C68.2307 58.9486 59.5956 56.6848 57.2945 59.8892C54.9934 63.0936 59.8976 70.5527 68.2485 76.5496ZM40.311 59.28C44.7736 70.6313 52.9571 77.9202 58.0617 82.2952L57.2165 83.2813C52.0936 78.8906 43.6903 71.4256 39.1023 59.7551L40.311 59.28ZM95.4828 96.5757C93.3848 96.8955 90.802 96.8684 87.5168 96.6344L87.4245 97.9298C90.7308 98.1654 93.432 98.202 95.6785 97.8596L95.4828 96.5757ZM83.0041 95.6533C83.879 95.8576 84.706 96.0387 85.4899 96.1945L85.2368 97.4683C84.4357 97.3092 83.5942 97.1247 82.7088 96.918L83.0041 95.6533ZM39.9315 57.8472L39.7875 55.0789L38.4905 55.1463L38.6345 57.9146L39.9315 57.8472Z" fill="#52555B"/>
</svg>
