<svg width="255" height="164" viewBox="0 0 255 164" fill="none" xmlns="http://www.w3.org/2000/svg">
<path fill-rule="evenodd" clip-rule="evenodd" d="M23.695 56.7813C7.76347 61.0654 0.124933 79.6109 8.33504 94.0742C11.9068 100.367 18.9105 105.156 26.3908 106.422C43.2067 109.267 58.2469 94.4625 55.6409 77.6285C54.0521 67.3626 45.8994 58.6224 35.9634 56.5327C32.1914 55.7391 27.1924 55.8406 23.695 56.7813ZM34.2307 64.9542C36.9907 66.3624 38.6943 69.2181 38.741 72.5163C38.7755 74.9104 38.868 75.0883 39.9373 74.8206C40.7925 74.606 41.1882 74.8195 41.4464 75.6333C41.6392 76.2405 41.7152 76.7982 41.6153 76.8731C41.2806 77.1244 35.5995 79.2736 34.8638 79.4271C34.0724 79.5917 31.9386 73.2015 32.3864 72.009C32.8517 70.7708 34.6827 71.2823 35.2394 72.8058C35.7679 74.2533 35.7732 74.249 35.8147 72.3155C35.8997 68.3517 31.597 65.5592 27.817 67.1252C25.9329 67.9055 24.1741 70.4558 24.1741 72.4074C24.1741 74.0636 25.8808 76.9289 27.3289 77.7039C28.4306 78.2935 28.8136 80.0693 27.9541 80.6005C27.306 81.001 24.2299 78.8231 22.8913 77.0165C22.0664 75.9031 21.78 74.7292 21.78 72.46C21.78 69.9102 22.034 69.0704 23.3093 67.3982C25.9579 63.9258 30.3067 62.9527 34.2307 64.9542ZM31.4849 81.3048C31.342 92.2814 31.3367 92.3276 30.1463 92.4971L28.9511 92.6665V81.4748V70.2826H30.2897H31.6289L31.4849 81.3048ZM35.7791 83.9608C39.823 87.8114 39.7354 93.1324 35.5677 96.7912C29.5631 102.064 20.3809 96.5963 21.6903 88.528C21.9798 86.7432 21.9288 86.6635 20.6927 86.9737C19.6319 87.2404 19.3897 87.1017 19.3897 86.2285C19.3897 85.6388 19.378 84.9839 19.3636 84.7735C19.3371 84.3895 24.2092 83.096 25.8399 83.0535C26.9305 83.0254 27.204 83.7356 27.6614 87.7758C28.0253 90.9943 28.0242 90.9991 26.6293 90.9991C25.4113 90.9991 25.2307 90.7787 25.2169 89.2727C25.203 87.7928 25.1196 87.6855 24.6347 88.5195C23.3163 90.7877 25.7162 95.084 28.8268 96.0242C30.5192 96.5357 33.5189 95.4213 34.7858 93.8107C35.4991 92.904 35.8566 91.6514 35.8566 90.0605C35.8566 88.0186 35.5868 87.4173 33.9975 85.9182C32.1038 84.1324 31.5094 81.9688 32.9128 81.9688C33.3388 81.9688 34.6285 82.8655 35.7791 83.9608Z" fill="#52555B"/>
<path fill-rule="evenodd" clip-rule="evenodd" d="M151.952 67.9575C151.486 68.4839 150.934 69.9618 150.725 71.2406C150.431 73.0325 150.103 73.566 149.297 73.566C148.721 73.566 148.251 73.9354 148.251 74.3868C148.251 74.8426 148.737 75.2075 149.345 75.2075C150.383 75.2075 150.439 75.5725 150.439 82.3208V89.434H151.791H153.142L153.296 82.4575L153.449 75.4811L154.954 75.3082C157.057 75.0658 156.94 73.566 154.817 73.566C153.384 73.566 153.175 73.3712 153.175 72.034C153.175 70.0899 154.076 69.1887 156.021 69.1887C157.188 69.1887 157.553 68.9282 157.553 68.0943C157.553 67.168 157.188 67 155.175 67C153.598 67 152.513 67.3223 151.952 67.9575ZM159.012 67.365C158.811 67.5652 158.647 68.3039 158.647 69.0065C158.647 70.0034 158.947 70.283 160.015 70.283C161.17 70.283 161.383 70.0275 161.383 68.6415C161.383 67.4148 161.13 67 160.38 67C159.828 67 159.212 67.1642 159.012 67.365ZM81.6438 73.8002C78.9911 74.998 77.6702 77.5746 77.6681 81.5558C77.6664 84.127 77.9531 85.322 78.9151 86.7539C80.4717 89.0717 83.676 90.31 86.6657 89.7491C90.167 89.092 93.7505 84.5094 90.7624 84.5094C90.1413 84.5094 89.0114 85.2481 88.252 86.1509C87.2627 87.3263 86.3877 87.7924 85.1708 87.7924C83.0982 87.7924 80.4017 85.4139 80.4017 83.5864C80.4017 82.3437 80.5068 82.3208 86.164 82.3208C92.643 82.3208 92.8826 82.1686 91.9377 78.6585C90.7323 74.1816 85.8751 71.8895 81.6438 73.8002ZM98.6307 73.8199C97.672 74.2369 96.5098 75.3077 96.0486 76.2001C95.2344 77.7754 95.2492 77.8301 96.5602 78.0807C97.3032 78.2225 97.9111 78.1267 97.9111 77.8673C97.9111 76.6351 100.215 75.2075 102.204 75.2075C104.537 75.2075 106.119 76.4786 106.119 78.3532C106.119 79.5461 105.776 79.6768 100.647 80.4401C97.3519 80.9304 96.3118 81.5482 95.4888 83.5043C94.116 86.7703 95.6902 89.3136 99.3929 89.8104C101.252 90.0594 103.051 89.562 106.255 87.9123C106.481 87.7963 106.666 88.0912 106.666 88.5678C106.666 89.1018 107.139 89.434 107.901 89.434C109.122 89.434 109.134 89.3628 108.968 83.0047C108.876 79.4684 108.531 76.0332 108.202 75.3706C107.089 73.131 102.08 72.3196 98.6307 73.8199ZM117.062 74.1132C115.753 75.422 115.421 75.4778 115.421 74.3868C115.421 73.931 114.934 73.566 114.326 73.566C113.282 73.566 113.232 73.931 113.232 81.5V89.434H114.552C115.856 89.434 115.873 89.3628 116.056 83.3702C116.218 78.0654 116.378 77.2047 117.336 76.4961C117.968 76.0288 119.042 75.8062 119.877 75.9692C121.029 76.1941 121.389 76.0092 121.635 75.0653C122.204 72.8914 118.959 72.2162 117.062 74.1132ZM129.1 73.4068C128.648 73.5732 127.848 74.0842 127.322 74.5427C126.459 75.294 126.364 75.2869 126.364 74.4716C126.364 73.8703 125.904 73.566 124.996 73.566H123.628V81.5V89.434H124.996C126.361 89.434 126.364 89.4225 126.372 84.0991C126.377 80.9375 126.658 78.2142 127.063 77.4148C128.025 75.514 130.835 74.7846 132.639 75.9665C133.988 76.8507 134.024 77.0384 134.024 83.1541V89.434H135.392H136.76V82.8258C136.76 76.2515 136.752 76.2094 135.161 74.6182C133.593 73.0501 131.311 72.5943 129.1 73.4068ZM170.877 73.5343C170.231 73.8106 169.54 74.2998 169.34 74.6221C168.81 75.4811 167.949 75.3356 167.949 74.3868C167.949 73.931 167.462 73.566 166.855 73.566C165.811 73.566 165.76 73.931 165.76 81.5V89.434H167.128H168.496V83.6641C168.496 78.2668 168.583 77.8066 169.839 76.5508C171.381 75.0084 173.191 74.8344 174.94 76.0595C176.077 76.8551 176.156 77.3224 176.156 83.1727V89.434H177.524H178.892V82.8986C178.892 76.9082 178.789 76.2433 177.66 74.9307C176.304 73.3543 172.926 72.6588 170.877 73.5343ZM186.178 73.8199C185.219 74.2369 184.057 75.3077 183.596 76.2001C182.782 77.7754 182.796 77.8301 184.107 78.0807C184.85 78.2225 185.458 78.1267 185.458 77.8673C185.458 76.6351 187.762 75.2075 189.751 75.2075C192.084 75.2075 193.666 76.4786 193.666 78.3532C193.666 79.5619 193.173 79.7447 188.007 80.4549C184.478 80.9392 182.639 82.5506 182.563 85.2213C182.489 87.8236 183.996 89.4154 186.902 89.8049C188.803 90.0599 190.574 89.5746 193.803 87.9123C194.029 87.7963 194.213 88.0912 194.213 88.5678C194.213 89.1029 194.686 89.434 195.453 89.434C196.678 89.434 196.691 89.3617 196.517 83.2783C196.42 79.893 196.085 76.4617 195.772 75.6535C194.811 73.1677 189.854 72.2205 186.178 73.8199ZM205.896 73.5343C205.25 73.8106 204.558 74.2998 204.359 74.6221C203.828 75.4811 202.968 75.3356 202.968 74.3868C202.968 73.931 202.481 73.566 201.873 73.566C200.829 73.566 200.779 73.931 200.779 81.5V89.434H202.147H203.515V83.8107C203.515 77.486 204.072 76.0797 206.821 75.4762C207.946 75.2289 208.919 75.3958 209.83 75.9927C211.13 76.8441 211.175 77.0871 211.175 83.1541V89.434H212.543H213.911V82.8986C213.911 76.9082 213.808 76.2433 212.679 74.9307C211.323 73.3543 207.945 72.6588 205.896 73.5343ZM220.976 74.2664C218.493 75.9397 217.759 77.5877 217.751 81.5C217.745 85.3203 218.978 87.8193 221.52 89.1336C224.704 90.7805 229.081 89.6353 230.564 86.7681C231.741 84.4919 231.644 83.9623 230.053 83.9623C229.289 83.9623 228.685 84.2791 228.685 84.6796C228.685 85.9945 226.495 87.7924 224.894 87.7924C224.036 87.7924 222.803 87.3613 222.152 86.8349C219.658 84.8137 219.658 78.1852 222.152 76.1651C224.324 74.4059 227.919 75.3728 228.777 77.9478C228.924 78.3882 229.439 78.4988 230.209 78.2542C231.351 77.892 231.37 77.7907 230.586 76.2756C228.905 73.0243 224.261 72.0531 220.976 74.2664ZM237.059 74.0891C234.609 75.5824 233.582 77.3935 233.267 80.7739C232.641 87.4844 238.492 91.87 244.357 89.0865C245.924 88.3429 247.836 85.9934 247.836 84.8104C247.836 83.8676 245.313 84.7507 244.005 86.1509C242.398 87.8718 240.426 88.2581 238.504 87.2289C237.462 86.6718 235.798 84.0055 235.798 82.8953C235.798 82.5287 237.979 82.3208 241.817 82.3208H247.836L247.833 80.2689C247.828 74.6927 241.769 71.217 237.059 74.0891ZM61.3892 74.25C61.5293 74.6265 62.9262 78.3007 64.4928 82.416C67.2439 89.643 67.3118 89.9532 66.4905 91.5422C65.6298 93.2072 63.9073 94.1648 62.8972 93.541C62.5809 93.3451 62.3451 93.7971 62.3451 94.5998C62.3451 95.8211 62.5777 96 64.165 96C65.3524 96 66.3767 95.5727 67.1137 94.7689C68.0641 93.7331 75.4772 75.2606 75.4772 73.9294C75.4772 73.6875 74.9251 73.5688 74.2499 73.6645C73.2239 73.8112 72.656 74.8579 70.7786 80.0648L68.5341 86.2899L66.201 79.928C64.0747 74.1307 63.7459 73.566 62.5005 73.566C61.6354 73.566 61.2272 73.8172 61.3892 74.25ZM158.647 81.5V89.434H160.015H161.383V81.5V73.566H160.015H158.647V81.5ZM87.9193 76.4387C88.5474 77.1155 89.1444 78.1623 89.2456 78.7642C89.4158 79.7748 89.0847 79.8705 84.9159 80.0172C80.654 80.1676 80.4017 80.1124 80.4017 79.035C80.4017 75.7782 85.631 73.9726 87.9193 76.4387ZM243.757 76.5508C244.495 77.2895 245.1 78.4074 245.1 79.035C245.1 80.1124 244.848 80.1676 240.586 80.0172C236.424 79.8711 236.085 79.7731 236.236 78.7642C236.485 77.1139 238.919 75.2075 240.778 75.2075C241.785 75.2075 242.93 75.7235 243.757 76.5508ZM106.119 83.1661C106.119 85.8724 104.131 87.7924 101.328 87.7924C98.9513 87.7924 97.9111 87.0302 97.9111 85.2875C97.9111 83.6383 98.9125 82.9609 102.301 82.3186C103.903 82.0143 105.336 81.6445 105.484 81.4962C106.011 80.9687 106.119 81.2505 106.119 83.1661ZM193.666 83.1661C193.666 85.8724 191.678 87.7924 188.875 87.7924C186.498 87.7924 185.458 87.0302 185.458 85.2875C185.458 83.6383 186.46 82.9609 189.848 82.3186C191.45 82.0143 192.883 81.6445 193.031 81.4962C193.559 80.9687 193.666 81.2505 193.666 83.1661ZM142.232 88.066C142.232 89.1604 142.505 89.434 143.6 89.434C144.694 89.434 144.968 89.1604 144.968 88.066C144.968 86.9717 144.694 86.6981 143.6 86.6981C142.505 86.6981 142.232 86.9717 142.232 88.066Z" fill="#52555B"/>
</svg>
