<svg width="255" height="164" viewBox="0 0 255 164" fill="none" xmlns="http://www.w3.org/2000/svg">
<path fill-rule="evenodd" clip-rule="evenodd" d="M41.9193 53.6275C40.416 53.9568 38.0224 54.7422 36.6006 55.3732C35.1788 56.0041 32.7944 57.3498 31.302 58.3635C29.8091 59.3766 27.5509 61.3702 26.2826 62.7929C25.0143 64.2156 23.1397 67.0433 22.1165 69.0764C21.0929 71.1096 19.9335 74.3108 19.5394 76.19C19.0451 78.548 18.8984 80.8773 19.067 83.7068C19.2078 86.0689 19.7298 89.061 20.2988 90.7648C20.8414 92.3921 21.6555 94.4471 22.1069 95.3323C22.5584 96.2174 23.8563 98.1772 24.9916 99.687C26.1268 101.197 28.2475 103.367 29.7039 104.51C31.1608 105.653 33.5935 107.214 35.1096 107.979C36.6261 108.743 39.0862 109.737 40.5763 110.188C42.5175 110.775 44.772 111.005 48.5249 111C53.0591 110.994 54.2536 110.823 57.4038 109.73C59.406 109.036 62.2761 107.729 63.7817 106.826C65.2878 105.922 67.8521 103.815 69.4808 102.142C71.1363 100.442 73.1981 97.6866 74.1566 95.8931C75.1001 94.1287 76.2786 91.0933 76.7761 89.148C77.2932 87.1271 77.6809 84.1113 77.6809 82.1123C77.6809 80.1215 77.2936 77.0998 76.7825 75.1008C76.2882 73.1692 75.1138 70.1124 74.1721 68.3088C73.0423 66.1435 71.2907 63.8525 69.0193 61.5692C66.3761 58.912 64.6828 57.6683 61.7207 56.2082C59.5996 55.1622 56.4289 54.0065 54.675 53.6393C52.9211 53.2726 49.9486 52.9851 48.0694 53.0006C46.1902 53.0161 43.4227 53.2981 41.9193 53.6275ZM92.923 61.726C92.8028 62.0394 92.7577 71.1105 92.8233 81.8845L92.9422 101.474L97.8312 101.603L102.72 101.732L102.842 90.7671L102.965 79.8022L107.143 87.4492L111.322 95.0958H114.171H117.02L121.154 87.5148L125.287 79.9338L125.409 90.8176L125.531 101.701H130.539H135.547L135.428 81.5429L135.309 61.3843H130.332H125.356L119.779 71.5629C114.388 81.4021 114.18 81.706 113.538 80.6741C113.172 80.0869 110.773 75.7117 108.207 70.9511C105.641 66.1905 103.335 62.0394 103.083 61.726C102.77 61.336 101.129 61.1565 97.8832 61.1565C94.5097 61.1565 93.0784 61.321 92.923 61.726ZM141.668 61.726C141.548 62.0394 141.503 71.1105 141.568 81.8845L141.687 101.474L156.607 101.594L171.526 101.714V97.38V93.0458H161.504H151.482V89.1735V85.3013H159.91H168.338V81.2012V77.1012H159.91H151.482V73.6936V70.286L161.162 70.163L170.843 70.04L170.973 65.5982L171.104 61.1565H156.495C145.228 61.1565 141.837 61.2868 141.668 61.726ZM207.573 63.0926C207.121 64.1573 206.377 66.0538 205.919 67.3066C205.462 68.5594 204.95 69.7457 204.782 69.9429C204.613 70.1402 203.592 68.3466 202.512 65.9568L200.549 61.6121H195.802C191.087 61.6121 191.056 61.6194 191.374 62.6371C191.55 63.2011 193.613 67.5038 195.96 72.1993C198.307 76.8948 200.227 81.0809 200.227 81.5014C200.227 81.9224 199.668 83.7692 198.985 85.606C198.302 87.4428 197.636 88.9389 197.504 88.9303C197.373 88.9221 194.293 82.772 190.66 75.2639L184.054 61.6125H179.385C176.817 61.6121 174.717 61.7656 174.719 61.9537C174.721 62.1419 179.029 71.1105 184.292 81.8845L193.861 101.474L197.876 101.604L201.89 101.733L203.886 97.0584L205.883 92.3834L208.074 97.0424L210.266 101.701H214.267H218.268L226.539 82.2262C231.087 71.5146 234.943 62.392 235.106 61.9537C235.377 61.2235 234.961 61.1565 230.127 61.1565H224.85L224.232 62.4093C223.891 63.0981 221.477 69.3484 218.867 76.298C216.257 83.248 214.003 88.9366 213.857 88.9398C213.712 88.943 212.868 87.3344 211.983 85.3655L210.373 81.7852L214.415 72.2681C216.638 67.0337 218.572 62.392 218.712 61.9537C218.944 61.2258 218.508 61.1565 213.68 61.1565H208.395L207.573 63.0926ZM55.8672 65.5909C57.7359 66.5116 59.7472 68.0054 61.2324 69.5757C62.5389 70.9575 64.1197 73.2061 64.7457 74.5732C65.3716 75.9404 66.1146 78.3002 66.3966 79.8172C66.7838 81.8987 66.7756 83.4376 66.3634 86.0889C66.0627 88.0214 65.6304 89.7894 65.4017 90.0181C65.152 90.2678 61.1235 88.7316 55.2823 86.1591L45.5779 81.8845L51.835 81.7579C56.397 81.6654 58.089 81.4805 58.0817 81.0746C58.0762 80.7684 57.6922 79.6979 57.228 78.6956C56.7642 77.6934 55.7948 76.3208 55.0741 75.6452C54.3534 74.9696 52.7562 73.971 51.5248 73.4266C49.8388 72.6808 48.76 72.4986 47.1564 72.6886L45.0276 72.941L43.1675 69.6682C42.1448 67.8683 41.2405 66.1148 41.1581 65.7713C41.0706 65.4074 41.6719 64.8917 42.6026 64.5327C43.624 64.1391 45.7574 63.9541 48.5372 64.0179C52.399 64.1067 53.2072 64.2803 55.8672 65.5909ZM35.4594 78.6437L38.8447 80.1867L38.8174 83.1091C38.796 85.3924 39.0324 86.4652 39.8989 88.0173C40.5089 89.1093 41.7845 90.6272 42.7334 91.3903C44.1484 92.5274 44.9707 92.8094 47.3018 92.9579L50.1449 93.1392L52.0683 96.4944C53.1261 98.3399 53.9917 100.038 53.9917 100.269C53.9917 100.499 52.65 100.94 51.0105 101.25C48.6616 101.693 47.433 101.695 45.2176 101.259C43.6705 100.955 41.4505 100.222 40.2834 99.6305C39.1167 99.0392 37.1787 97.5727 35.9779 96.3714C34.7602 95.1537 33.1908 92.8991 32.4313 91.2755C31.4441 89.1662 31.0104 87.4529 30.8565 85.058C30.7385 83.2171 30.8915 80.7215 31.2022 79.4263C31.5088 78.1476 31.8309 77.1012 31.917 77.1012C32.0036 77.1012 33.5976 77.7954 35.4594 78.6437Z" fill="#52555B"/>
</svg>
