<svg width="254" height="163" viewBox="0 0 254 163" fill="none" xmlns="http://www.w3.org/2000/svg">
<path fill-rule="evenodd" clip-rule="evenodd" d="M37.5446 106C52.204 106 64.0892 94.1347 64.0892 79.5C64.0892 64.8653 52.2071 53 37.5446 53C22.8853 53 11 64.8653 11 79.5C11 94.1347 22.8853 106 37.5446 106ZM54.8747 84.1015V82.3944C54.8747 82.2365 54.7221 82.1222 54.572 82.1657L46.4968 84.4963C46.4532 84.5072 46.4149 84.5316 46.3849 84.5643C45.52 85.5182 44.7849 86.1583 44.5903 86.3278L44.5768 86.3395C44.075 86.7642 43.4532 86.9957 42.7986 86.9957H39.8751V84.0198H42.1987C42.2587 84.0198 42.316 83.998 42.3596 83.9599L42.6596 83.6849C42.7878 83.5678 42.9405 83.4263 43.1232 83.2439L43.1705 83.1968L43.1706 83.1967C43.2665 83.1012 43.3691 82.9992 43.4695 82.8872C43.5896 82.7701 43.7068 82.6394 43.8159 82.5115C43.9986 82.3155 44.1732 82.1112 44.3559 81.8962C44.4868 81.7546 44.6068 81.594 44.7241 81.4333C44.855 81.2808 44.9832 81.1093 45.1031 80.946C45.1478 80.8804 45.1954 80.8142 45.2439 80.7465L45.244 80.7464C45.2903 80.682 45.3375 80.6162 45.384 80.5485C45.4713 80.4178 45.5586 80.2789 45.6322 80.1482C45.8613 79.7943 46.055 79.4158 46.2186 79.0374C46.2937 78.8753 46.3538 78.7046 46.4121 78.5387L46.434 78.4766C46.4995 78.2832 46.554 78.1008 46.595 77.9075C46.6931 77.4528 46.7149 77.0009 46.6713 76.5489C46.6604 76.4073 46.6495 76.2685 46.6168 76.1378V76.116C46.6058 76.0234 46.584 75.92 46.554 75.8247C46.4559 75.3836 46.3031 74.9426 46.1095 74.5097C46.044 74.349 45.9677 74.1857 45.8941 74.0359C45.7195 73.712 45.5368 73.3879 45.3295 73.0748C45.2879 73.0087 45.242 72.9417 45.1961 72.8749C45.1608 72.8233 45.1255 72.7719 45.0923 72.7209C44.961 72.5188 44.8134 72.324 44.6703 72.1349L44.6692 72.1336C44.6372 72.0913 44.6054 72.0493 44.5741 72.0076C44.4895 71.8968 44.397 71.786 44.3039 71.6745C44.2528 71.6133 44.2016 71.552 44.1514 71.4903C44.0096 71.3187 43.8705 71.1554 43.7287 70.9948C43.2214 70.423 42.6896 69.9057 42.215 69.4646C42.1278 69.3775 42.0323 69.2904 41.9341 69.206C41.566 68.8711 41.2305 68.5798 40.9496 68.3538C40.8652 68.289 40.7895 68.2251 40.719 68.1657L40.719 68.1656L40.7187 68.1654C40.6709 68.1251 40.6255 68.0868 40.5814 68.0516C40.4963 67.9883 40.4224 67.9321 40.3604 67.8849C40.3211 67.855 40.2865 67.8287 40.2569 67.8065C40.2351 67.7902 40.2105 67.7794 40.186 67.7711L39.8751 67.6841V65.1139C39.8751 64.6946 39.706 64.3189 39.436 64.0439C39.166 63.7689 38.7897 63.6001 38.3751 63.6001C37.546 63.6001 36.8752 64.278 36.8752 65.1139V66.8454L36.7197 66.8019L36.297 66.6821L35.9124 66.5759C35.9118 66.5759 35.9112 66.5758 35.9105 66.5756C35.91 66.5754 35.9094 66.5751 35.9089 66.5749C35.9083 66.5747 35.9077 66.5744 35.9071 66.5742C35.9066 66.574 35.9061 66.5739 35.9056 66.5737C35.9044 66.5734 35.9031 66.5732 35.9016 66.5732H35.8934L32.9752 65.7836C32.8471 65.7482 32.738 65.8871 32.8034 66.0042L33.2698 66.8645C33.2963 66.9306 33.3298 66.9967 33.3642 67.0647L33.3643 67.0647C33.3866 67.1087 33.4093 67.1534 33.4307 67.1994C33.5071 67.3519 33.5834 67.5125 33.657 67.6731C33.7225 67.8147 33.788 67.9536 33.8643 68.106C33.8964 68.1777 33.9291 68.2503 33.9623 68.3239C34.0842 68.5941 34.2124 68.8782 34.3388 69.1842L34.3388 69.1843C34.4479 69.4429 34.557 69.7015 34.6525 69.9711C34.9143 70.649 35.1624 71.3732 35.3779 72.1165C35.4315 72.2828 35.4744 72.4438 35.5178 72.6069L35.5179 72.607L35.5179 72.6071L35.5179 72.6071C35.5363 72.6762 35.5548 72.7457 35.5743 72.8162L35.6043 72.9469C35.6915 73.2927 35.7679 73.6357 35.8225 73.9815C35.8661 74.2183 35.907 74.4443 35.9288 74.673C35.9615 74.9316 35.9942 75.1903 36.0052 75.449C36.027 75.6858 36.0379 75.9336 36.0379 76.1705C36.0379 76.7749 35.9834 77.3575 35.8552 77.9075L35.831 77.9972C35.7951 78.131 35.7579 78.2697 35.7134 78.403C35.6731 78.5458 35.6209 78.6886 35.5667 78.8368L35.5667 78.8368C35.5475 78.8893 35.528 78.9425 35.5088 78.9965L35.498 79.0255C35.4579 79.1333 35.4171 79.2431 35.367 79.3505C35.097 79.9985 34.7616 80.6438 34.4152 81.2482C33.9079 82.1439 33.398 82.9308 33.0407 83.4372C33.0188 83.4699 32.9975 83.501 32.977 83.531C32.9514 83.5683 32.927 83.6039 32.9044 83.6386C32.7925 83.7965 32.9071 84.0198 33.1007 84.0198H36.8752V86.9957H33.057C32.0316 86.9957 31.0825 86.4157 30.6244 85.4873C30.3871 85.0217 30.2944 84.5099 30.349 84.0089C30.3625 83.8592 30.2507 83.7176 30.0981 83.7176H22.3855C22.2545 83.7176 22.1482 83.8238 22.1482 83.9545V84.1124C22.1482 89.024 26.1218 93.0045 31.0253 93.0045H44.8604C47.4538 93.0045 48.9264 90.6452 50.3738 88.3263C50.7773 87.6799 51.1788 87.0366 51.6021 86.4484C52.363 85.392 54.193 84.5534 54.7275 84.3247C54.8148 84.2866 54.8747 84.1995 54.8747 84.1015ZM24.21 80.2108L24.0955 80.3905C23.9945 80.5457 24.1063 80.7526 24.2973 80.7526H31.3989C31.478 80.7526 31.5516 80.7145 31.5953 80.6492C31.688 80.5076 31.7753 80.3606 31.8544 80.2108C32.468 79.1817 33.0134 78.0681 33.2125 77.2459C33.6789 75.2475 32.6834 72.0375 31.5298 69.4564C31.4535 69.2849 31.2162 69.2686 31.1153 69.4265L24.21 80.2108Z" fill="#52555B"/>
<path d="M89.9553 92.2181C87.5557 92.2181 85.3498 91.6813 83.3383 90.6076C81.3506 89.5339 79.7627 88.0401 78.5751 86.1261C77.4119 84.1888 76.8301 82.0181 76.8301 79.614C76.8301 77.2099 77.4119 75.0508 78.5751 73.1369C79.7627 71.223 81.3506 69.7291 83.3383 68.6554C85.3498 67.5818 87.5557 67.0449 89.9553 67.0449C92.355 67.0449 94.5486 67.5818 96.5363 68.6554C98.5484 69.7291 100.124 71.223 101.263 73.1369C102.427 75.0508 103.008 77.2099 103.008 79.614C103.008 82.0181 102.427 84.1888 101.263 86.1261C100.1 88.0401 98.5239 89.5339 96.5363 90.6076C94.5486 91.6813 92.355 92.2181 89.9553 92.2181ZM89.9553 86.7563C91.9913 86.7563 93.6153 86.1028 94.8273 84.7957C96.0638 83.4886 96.6817 81.7614 96.6817 79.614C96.6817 77.4433 96.0638 75.7161 94.8273 74.4323C93.6153 73.1252 91.9913 72.4717 89.9553 72.4717C87.8949 72.4717 86.247 73.1136 85.0106 74.3973C83.7986 75.6811 83.1928 77.4199 83.1928 79.614C83.1928 81.7847 83.7986 83.5236 85.0106 84.8307C86.247 86.1145 87.8949 86.7563 89.9553 86.7563Z" fill="#52555B"/>
<path d="M112.685 75.2028C113.291 74.2925 114.127 73.5572 115.194 72.9971C116.26 72.4368 117.508 72.1567 118.938 72.1567C120.611 72.1567 122.126 72.5652 123.483 73.3822C124.84 74.1991 125.907 75.3662 126.683 76.8833C127.483 78.4005 127.882 80.1627 127.882 82.17C127.882 84.1774 127.483 85.9513 126.683 87.4918C125.907 89.0089 124.84 90.1876 123.483 91.0279C122.126 91.8449 120.611 92.2533 118.938 92.2533C117.533 92.2533 116.285 91.9732 115.194 91.413C114.127 90.8529 113.291 90.1293 112.685 89.2423V97.7851H106.468V72.4368H112.685V75.2028ZM121.556 82.17C121.556 80.6762 121.12 79.5092 120.247 78.6689C119.399 77.8053 118.344 77.3735 117.084 77.3735C115.848 77.3735 114.794 77.8053 113.921 78.6689C113.073 79.5325 112.648 80.7112 112.648 82.205C112.648 83.6989 113.073 84.8776 113.921 85.7412C114.794 86.6048 115.848 87.0366 117.084 87.0366C118.32 87.0366 119.375 86.6048 120.247 85.7412C121.12 84.8542 121.556 83.6638 121.556 82.17Z" fill="#52555B"/>
<path d="M150.268 81.8899C150.268 82.4501 150.232 83.0336 150.16 83.6405H136.089C136.186 84.8542 136.586 85.7879 137.289 86.4414C138.016 87.0716 138.9 87.3867 139.943 87.3867C141.494 87.3867 142.573 86.7565 143.179 85.4961H149.796C149.457 86.7799 148.839 87.9352 147.942 88.9622C147.069 89.9892 145.966 90.7945 144.633 91.378C143.3 91.9615 141.809 92.2533 140.161 92.2533C138.174 92.2533 136.404 91.8449 134.853 91.0279C133.302 90.211 132.09 89.0439 131.217 87.5267C130.345 86.0096 129.908 84.2357 129.908 82.205C129.908 80.1744 130.332 78.4005 131.181 76.8833C132.053 75.3662 133.265 74.1991 134.816 73.3822C136.368 72.5652 138.149 72.1567 140.161 72.1567C142.125 72.1567 143.87 72.5536 145.396 73.3472C146.924 74.1407 148.111 75.2728 148.96 76.7433C149.833 78.2137 150.268 79.9293 150.268 81.8899ZM143.906 80.3144C143.906 79.2874 143.543 78.4705 142.815 77.8636C142.088 77.2568 141.179 76.9533 140.089 76.9533C139.046 76.9533 138.161 77.2451 137.434 77.8286C136.731 78.4121 136.295 79.2407 136.125 80.3144H143.906Z" fill="#52555B"/>
<path d="M165.911 72.2268C168.286 72.2268 170.176 72.9737 171.582 74.4675C173.012 75.938 173.728 77.9687 173.728 80.5595V91.9732H167.546V81.3647C167.546 80.0577 167.195 79.0423 166.492 78.3188C165.789 77.5952 164.844 77.2334 163.656 77.2334C162.468 77.2334 161.523 77.5952 160.82 78.3188C160.118 79.0423 159.766 80.0577 159.766 81.3647V91.9732H153.549V72.4368H159.766V75.0277C160.396 74.1641 161.245 73.4872 162.311 72.9971C163.377 72.4835 164.577 72.2268 165.911 72.2268Z" fill="#52555B"/>
<path d="M187.283 92.2181C185.416 92.2181 183.744 91.9264 182.265 91.3428C180.787 90.7593 179.599 89.8957 178.702 88.752C177.829 87.6083 177.369 86.2312 177.32 84.6206H183.937C184.035 85.531 184.362 86.2312 184.92 86.7213C185.477 87.1882 186.204 87.4216 187.101 87.4216C188.022 87.4216 188.749 87.2231 189.282 86.8264C189.815 86.4062 190.082 85.8344 190.082 85.1108C190.082 84.5039 189.864 84.0021 189.428 83.6053C189.016 83.2085 188.495 82.8817 187.864 82.625C187.258 82.3682 186.386 82.0765 185.247 81.7497C183.598 81.2595 182.253 80.7694 181.211 80.2792C180.169 79.7891 179.272 79.0655 178.52 78.1085C177.769 77.1515 177.393 75.9028 177.393 74.3623C177.393 72.0749 178.254 70.2893 179.975 69.0056C181.695 67.6985 183.937 67.0449 186.701 67.0449C189.513 67.0449 191.779 67.6985 193.5 69.0056C195.221 70.2893 196.142 72.0865 196.263 74.3973H189.537C189.488 73.6037 189.185 72.9852 188.628 72.5417C188.07 72.0749 187.355 71.8415 186.482 71.8415C185.731 71.8415 185.125 72.0399 184.665 72.4367C184.204 72.8101 183.974 73.3587 183.974 74.0822C183.974 74.8758 184.362 75.4943 185.138 75.9378C185.913 76.3813 187.125 76.8598 188.773 77.3733C190.422 77.9101 191.755 78.4236 192.772 78.9138C193.815 79.4039 194.712 80.1158 195.463 81.0495C196.215 81.9831 196.59 83.1852 196.59 84.6557C196.59 86.0561 196.215 87.3282 195.463 88.4719C194.736 89.6156 193.67 90.5259 192.264 91.2028C190.858 91.8797 189.197 92.2181 187.283 92.2181Z" fill="#52555B"/>
<path d="M219.541 81.8899C219.541 82.4501 219.505 83.0336 219.432 83.6405H205.361C205.458 84.8542 205.858 85.7879 206.561 86.4414C207.288 87.0716 208.173 87.3867 209.216 87.3867C210.767 87.3867 211.846 86.7565 212.451 85.4961H219.068C218.729 86.7799 218.111 87.9352 217.215 88.9622C216.342 89.9892 215.239 90.7945 213.905 91.378C212.572 91.9615 211.082 92.2533 209.434 92.2533C207.446 92.2533 205.677 91.8449 204.125 91.0279C202.574 90.211 201.362 89.0439 200.489 87.5267C199.617 86.0096 199.181 84.2357 199.181 82.205C199.181 80.1744 199.605 78.4005 200.453 76.8833C201.325 75.3662 202.537 74.1991 204.089 73.3822C205.64 72.5652 207.422 72.1567 209.434 72.1567C211.397 72.1567 213.142 72.5536 214.669 73.3472C216.196 74.1407 217.384 75.2728 218.232 76.7433C219.105 78.2137 219.541 79.9293 219.541 81.8899ZM213.179 80.3144C213.179 79.2874 212.815 78.4705 212.088 77.8636C211.36 77.2568 210.452 76.9533 209.361 76.9533C208.319 76.9533 207.434 77.2451 206.707 77.8286C206.004 78.4121 205.567 79.2407 205.398 80.3144H213.179Z" fill="#52555B"/>
<path d="M221.584 82.17C221.584 80.1627 221.972 78.4005 222.748 76.8833C223.547 75.3662 224.626 74.1991 225.983 73.3822C227.341 72.5652 228.856 72.1567 230.528 72.1567C231.958 72.1567 233.207 72.4368 234.273 72.9971C235.364 73.5572 236.2 74.2925 236.782 75.2028V72.4368H242.999V91.9732H236.782V89.2073C236.176 90.1176 235.328 90.8529 234.237 91.413C233.17 91.9732 231.922 92.2533 230.492 92.2533C228.843 92.2533 227.341 91.8449 225.983 91.0279C224.626 90.1876 223.547 89.0089 222.748 87.4918C221.972 85.9513 221.584 84.1774 221.584 82.17ZM236.782 82.205C236.782 80.7112 236.345 79.5325 235.473 78.6689C234.625 77.8053 233.582 77.3735 232.346 77.3735C231.11 77.3735 230.055 77.8053 229.183 78.6689C228.335 79.5092 227.911 80.6762 227.911 82.17C227.911 83.6638 228.335 84.8542 229.183 85.7412C230.055 86.6048 231.11 87.0366 232.346 87.0366C233.582 87.0366 234.625 86.6048 235.473 85.7412C236.345 84.8776 236.782 83.6989 236.782 82.205Z" fill="#52555B"/>
</svg>
