<svg width="255" height="164" viewBox="0 0 255 164" fill="none" xmlns="http://www.w3.org/2000/svg">
<path fill-rule="evenodd" clip-rule="evenodd" d="M77.6548 39.1783C76.9049 39.2633 75.1562 39.5665 73.7687 39.8522C72.3814 40.1378 70.1188 40.7609 68.7409 41.2367C67.3631 41.7126 65.0852 42.668 63.6791 43.3599C62.273 44.0518 60.0872 45.3192 58.8217 46.1764C57.5562 47.0333 55.6388 48.5021 54.5608 49.4402C53.4828 50.3783 52.0027 51.8115 51.2717 52.6253L49.9427 54.1047L54.607 60.7712C57.1724 64.4379 59.3429 67.461 59.43 67.4894C59.5172 67.518 59.8731 67.0967 60.2208 66.5535C60.5685 66.01 61.414 64.9092 62.0997 64.107C62.7855 63.3049 63.9966 62.0821 64.791 61.3898C65.5856 60.6973 66.8109 59.7447 67.5139 59.2728C68.217 58.8008 69.3401 58.1295 70.0098 57.7812L71.2274 57.148L74.6463 60.4683C76.9792 62.7339 78.1354 63.7456 78.2861 63.653C78.4076 63.5783 80.8423 61.7711 83.6966 59.637C86.5509 57.503 92.2589 53.3546 96.3811 50.4185C100.503 47.4825 103.906 44.9902 103.942 44.8802C103.98 44.7656 102.896 44.132 101.398 43.3938C99.9631 42.686 98.0602 41.8359 97.1697 41.5045C96.2791 41.1731 94.285 40.5859 92.7383 40.1998C91.1916 39.8135 88.9697 39.3808 87.8008 39.2382C86.4893 39.0782 84.4008 38.9875 82.3469 39.0014C80.5161 39.0138 78.4047 39.0935 77.6548 39.1783ZM103.483 53.8481C99.8784 56.4345 96.9091 58.6189 96.8847 58.7024C96.8605 58.786 97.3287 59.1866 97.9254 59.5927C98.5221 59.999 99.636 60.8782 100.401 61.5464C101.166 62.2148 102.293 63.3538 102.907 64.0775C103.52 64.8013 104.468 66.0747 105.013 66.9073C105.558 67.7398 106.256 68.9127 106.564 69.5134L107.125 70.606L103.852 74.0421C102.051 75.9321 100.578 77.5242 100.578 77.5801C100.578 77.6361 102.477 80.2665 104.797 83.4256C107.117 86.5848 111.316 92.4671 114.128 96.4976C118.557 102.845 119.27 103.788 119.457 103.544C119.576 103.39 120.047 102.525 120.504 101.623C120.961 100.72 121.602 99.3237 121.929 98.5193C122.256 97.7148 122.831 96.0886 123.206 94.9055C123.582 93.7225 124.012 92.1737 124.162 91.4639C124.311 90.7541 124.556 89.4376 124.707 88.5385C124.859 87.6242 125.02 85.3419 125.072 83.36C125.13 81.1567 125.089 79.0415 124.962 77.7674C124.851 76.6404 124.575 74.7891 124.35 73.6534C124.125 72.5177 123.702 70.7483 123.41 69.7215C123.117 68.6949 122.542 67.0095 122.131 65.9765C121.72 64.9433 120.962 63.2667 120.447 62.2505C119.931 61.2344 118.962 59.5513 118.291 58.5102C117.621 57.4691 116.492 55.8816 115.781 54.9825C115.071 54.0834 113.544 52.399 112.388 51.2397C111.232 50.0804 110.231 49.1348 110.162 49.1386C110.094 49.1425 107.088 51.2617 103.483 53.8481ZM163.754 60.2355C163.019 60.3759 161.861 60.7254 161.179 61.0121C160.496 61.2988 159.563 61.7734 159.105 62.0668C158.646 62.36 157.688 63.1898 156.976 63.9106C156.206 64.6907 155.359 65.7787 154.885 66.598C154.447 67.3552 153.851 68.5942 153.561 69.3513C153.271 70.1085 152.853 71.4428 152.633 72.3167C152.413 73.1903 152.107 74.8165 151.954 75.9304C151.735 77.5206 151.692 78.8608 151.754 82.1715C151.815 85.4169 151.915 86.8438 152.188 88.3702C152.383 89.4605 152.817 91.2001 153.153 92.2357C153.489 93.2713 154.068 94.6885 154.441 95.3851C154.813 96.0819 155.458 97.0985 155.874 97.6444C156.29 98.1902 157.063 99.0362 157.592 99.5242C158.12 100.012 158.993 100.672 159.53 100.989C160.067 101.307 160.962 101.74 161.519 101.951C162.076 102.163 163.094 102.445 163.782 102.578C164.47 102.712 165.748 102.821 166.622 102.821C167.496 102.821 168.774 102.712 169.462 102.579C170.15 102.445 171.226 102.141 171.854 101.902C172.482 101.663 173.44 101.18 173.984 100.829C174.528 100.478 175.303 99.9188 175.705 99.5865C176.107 99.254 176.895 98.3677 177.456 97.6167C178.016 96.8655 178.815 95.5419 179.23 94.6749C179.645 93.808 180.176 92.4286 180.409 91.6096C180.642 90.7905 180.948 89.5515 181.088 88.8563C181.228 88.1609 181.425 86.84 181.524 85.921C181.624 85.002 181.706 83.0936 181.706 81.6802C181.706 80.2669 181.627 78.3086 181.531 77.3284C181.435 76.3482 181.2 74.753 181.009 73.7833C180.818 72.8136 180.445 71.3811 180.18 70.5998C179.915 69.8185 179.531 68.7929 179.327 68.3207C179.123 67.8484 178.54 66.8305 178.031 66.0586C177.522 65.2866 176.518 64.1004 175.799 63.4228C174.846 62.5236 174.074 61.9855 172.943 61.432C172.091 61.0148 170.896 60.5511 170.286 60.4015C169.677 60.2518 168.258 60.0959 167.133 60.055C165.75 60.0044 164.656 60.0629 163.754 60.2355ZM45.485 60.5339C45.3425 60.7534 44.8245 61.7407 44.334 62.7277C43.8433 63.7146 43.1043 65.3941 42.6917 66.4599C42.2789 67.5256 41.6798 69.3608 41.3602 70.538C41.0407 71.7152 40.6021 73.6722 40.3857 74.8867C40.0331 76.8655 39.993 77.6047 40.0009 81.9994C40.0089 86.5253 40.0441 87.0963 40.4576 89.3989C40.7041 90.7713 41.185 92.8621 41.5264 94.0451C41.8678 95.2282 42.4909 97.048 42.9112 98.0891C43.3315 99.1301 44.1354 100.872 44.6977 101.961C45.26 103.049 46.3632 104.908 47.1491 106.091C47.9351 107.274 49.3421 109.138 50.2757 110.233C51.2092 111.329 52.6296 112.827 53.432 113.562L54.8911 114.9L61.5434 110.139C65.2021 107.52 68.1955 105.325 68.1953 105.261C68.1951 105.197 67.8314 104.912 67.3869 104.629C66.9424 104.345 66.118 103.734 65.5549 103.27C64.992 102.806 64.1216 102.032 63.6208 101.549C63.1199 101.066 62.2679 100.128 61.7273 99.4657C61.1867 98.8032 60.3198 97.6029 59.8012 96.7984C59.2824 95.994 58.6446 94.8959 58.384 94.3583L57.9102 93.3811L61.1781 89.9508C62.9755 88.0641 64.4461 86.474 64.4461 86.4176C64.4461 86.361 62.5803 83.7756 60.2997 80.6723C58.0193 77.5691 53.9322 71.8551 51.2172 67.9747C48.5023 64.0942 46.1602 60.7428 46.0126 60.527L45.744 60.1346L45.485 60.5339ZM169.581 65.2745C170.083 65.4714 170.755 65.8111 171.074 66.0293C171.393 66.2475 171.634 66.5134 171.609 66.6201C171.585 66.7268 168.727 72.6622 165.259 79.8098C161.79 86.9574 158.901 92.7738 158.838 92.7352C158.775 92.6965 158.491 91.9495 158.207 91.075C157.922 90.2005 157.571 88.8383 157.427 88.0479C157.282 87.2575 157.079 85.5152 156.977 84.176C156.874 82.8369 156.839 80.812 156.899 79.6763C156.959 78.5405 157.124 76.8128 157.265 75.8369C157.406 74.8611 157.713 73.3898 157.949 72.5674C158.184 71.745 158.645 70.5074 158.973 69.8172C159.352 69.0194 159.965 68.138 160.657 67.3979C161.255 66.7576 162.121 66.0265 162.582 65.7734C163.043 65.5203 163.833 65.1961 164.339 65.0529C164.971 64.8741 165.792 64.812 166.963 64.8545C168.164 64.8982 168.937 65.0223 169.581 65.2745ZM175.228 72.1461C175.509 73.0208 175.861 74.4147 176.011 75.2436C176.17 76.1229 176.322 78.1996 176.376 80.2281C176.435 82.4616 176.393 84.4004 176.257 85.6487C176.141 86.7175 175.828 88.469 175.561 89.5407C175.294 90.6126 174.804 92.0452 174.471 92.7242C174.138 93.4034 173.52 94.4044 173.096 94.9489C172.673 95.4934 171.963 96.2085 171.519 96.5383C171.076 96.868 170.291 97.3021 169.775 97.5031C169.26 97.7041 168.295 97.9474 167.631 98.044C166.668 98.184 166.155 98.1639 165.086 97.9438C164.35 97.7924 163.331 97.4553 162.822 97.1951C162.312 96.9347 161.858 96.6243 161.813 96.505C161.768 96.3858 164.589 90.3994 168.083 83.2017C172.241 74.6358 174.484 70.1913 174.577 70.3355C174.655 70.4568 174.948 71.2716 175.228 72.1461ZM188.061 72.4875C188.102 72.5608 189.951 75.8185 192.17 79.7267C194.388 83.6348 196.174 86.8872 196.137 86.9541C196.1 87.0211 194.103 90.34 191.701 94.3297C189.298 98.3195 187.284 101.709 187.226 101.863C187.13 102.114 187.395 102.137 189.897 102.094L192.674 102.047L196.353 95.938L200.032 89.8291L201.063 89.7787L202.094 89.7283L205.742 95.9306L209.39 102.133H212.256C214.934 102.133 215.112 102.113 214.962 101.832C214.873 101.666 212.833 98.2037 210.428 94.1374C206.804 88.0075 206.084 86.6841 206.215 86.3937C206.302 86.2009 208.148 83.0066 210.316 79.2951C212.485 75.5836 214.259 72.5054 214.259 72.4548C214.259 72.4043 213.077 72.3628 211.633 72.3628H209.008L205.603 78.1706L202.197 83.9783L201.175 84.0291L200.153 84.0797L196.823 78.2643L193.493 72.4488L190.74 72.4015C189.225 72.3755 188.02 72.4142 188.061 72.4875ZM104.69 97.5828C104.28 98.197 103.392 99.3366 102.717 100.115C102.042 100.894 100.844 102.083 100.054 102.757C99.2647 103.431 97.9665 104.41 97.1697 104.933C96.3729 105.455 95.2853 106.098 94.7529 106.361L93.785 106.839L90.372 103.525C88.0434 101.263 86.889 100.253 86.7383 100.346C86.6168 100.42 84.1821 102.228 81.3279 104.362C78.4736 106.496 72.7655 110.644 68.6434 113.58C64.5212 116.516 61.1214 119.001 61.0881 119.101C61.0551 119.202 61.8544 119.716 62.8648 120.245C63.8751 120.773 65.3536 121.474 66.1504 121.802C66.9472 122.131 68.4044 122.672 69.3887 123.005C70.373 123.338 72.137 123.809 73.3087 124.052C74.4805 124.295 76.4745 124.621 77.74 124.777C79.5059 124.995 80.8929 125.039 83.7053 124.97C85.8981 124.915 88.0198 124.766 88.9888 124.598C89.8793 124.443 91.4132 124.129 92.3975 123.899C93.3817 123.669 94.954 123.217 95.8914 122.895C96.8288 122.572 98.2093 122.061 98.9592 121.759C99.7092 121.457 101.18 120.757 102.229 120.203C103.277 119.65 104.772 118.784 105.552 118.279C106.331 117.775 107.698 116.788 108.589 116.087C109.479 115.385 110.748 114.321 111.409 113.723C112.069 113.125 113.165 112.017 113.845 111.261L115.08 109.886L110.411 103.222C107.844 99.5566 105.674 96.537 105.589 96.5119C105.505 96.4866 105.1 96.9686 104.69 97.5828Z" fill="#52555B"/>
</svg>
