<svg width="255" height="164" viewBox="0 0 255 164" fill="none" xmlns="http://www.w3.org/2000/svg">
<path fill-rule="evenodd" clip-rule="evenodd" d="M143.694 41.1189C142.361 43.9341 136.859 55.5012 131.466 66.8232C126.073 78.1452 117.332 96.5 112.042 107.612C106.751 118.723 102.422 127.867 102.422 127.931C102.422 127.995 103.176 128.019 104.096 127.983L105.77 127.919L108.645 121.865C110.225 118.535 119.542 98.9674 129.347 78.3819C139.153 57.7964 147.697 39.8393 148.335 38.4769L149.495 36H147.806H146.117L143.694 41.1189ZM47.0494 57.8061C46.2701 57.9045 45.0516 58.1907 44.342 58.4422C43.6322 58.6936 42.5804 59.2046 42.0044 59.5778C41.4287 59.951 40.6611 60.5974 40.2987 61.0139C39.9364 61.4307 39.4481 62.1515 39.2135 62.6156C38.9792 63.0799 38.6685 64.1103 38.5235 64.9056C38.3243 65.9978 38.3191 66.7131 38.5022 67.83C38.6356 68.6431 39.0018 69.839 39.3162 70.4876C39.6303 71.136 40.3829 72.2142 40.9885 72.8835C41.5941 73.5526 43.1319 74.8025 44.4059 75.6609C45.6799 76.5193 46.7473 77.2857 46.7778 77.3639C46.8081 77.4422 46.1927 77.6915 45.41 77.9178C44.6274 78.1441 43.0271 78.8051 41.8535 79.3865C40.68 79.968 39.1172 80.901 38.3808 81.4603C37.6441 82.0195 36.5596 83.0913 35.9703 83.842C35.381 84.5928 34.6998 85.6044 34.4563 86.0904C34.2125 86.5763 33.7826 87.7156 33.5008 88.6223C33.0576 90.0476 32.99 90.703 33.0011 93.4633C33.0129 96.3501 33.0711 96.8219 33.6093 98.3928C33.9368 99.3483 34.4687 100.587 34.7913 101.145C35.114 101.703 36.0176 102.806 36.7991 103.595C37.7529 104.558 38.7941 105.328 39.9643 105.936C40.9235 106.435 42.3951 107.023 43.2344 107.245C44.3649 107.542 45.5797 107.648 47.9214 107.653C50.3094 107.658 51.4557 107.56 52.6085 107.254C53.4478 107.031 54.8317 106.515 55.6839 106.107C56.5361 105.699 57.7556 104.892 58.3937 104.313C59.032 103.734 60.0091 102.557 60.5652 101.698C61.1211 100.838 61.8372 99.3368 62.1564 98.3617C62.4755 97.3866 62.8422 95.6627 62.9715 94.5306C63.1008 93.3988 63.1439 91.779 63.0672 90.9314C62.9905 90.0837 62.7871 88.7574 62.6149 87.984C62.4428 87.2108 61.941 85.8838 61.4995 85.0355C61.0103 84.0954 60.0965 82.8753 59.1597 81.9112C58.3143 81.0413 56.9849 79.876 56.2056 79.3216C55.4262 78.7672 53.1256 77.3038 51.0934 76.0693C49.0609 74.835 46.8057 73.4187 46.0817 72.9222C45.3577 72.4258 44.3325 71.6182 43.8034 71.1277C43.2743 70.6371 42.612 69.7404 42.3314 69.1349C41.9479 68.3071 41.8224 67.6521 41.8243 66.493C41.8261 65.4595 41.9601 64.6616 42.2316 64.0711C42.4541 63.5868 42.9669 62.8737 43.3713 62.4862C43.7757 62.0989 44.5969 61.554 45.1964 61.2752C46.1922 60.8125 46.5783 60.7702 49.6655 60.7869C52.7223 60.8034 53.2156 60.862 54.8396 61.401C55.8269 61.7286 57.4667 62.3829 58.4837 62.8552L60.3328 63.7138L61.084 62.2849L61.8353 60.8561L60.6009 60.3043C59.9221 60.0007 58.5598 59.4646 57.5735 59.1128C56.5873 58.761 54.9686 58.3281 53.9765 58.1509C52.9843 57.9736 51.3386 57.7834 50.3195 57.7279C49.3003 57.6727 47.8288 57.7079 47.0494 57.8061ZM163.715 57.8098C162.954 57.9113 161.702 58.2061 160.932 58.4651C160.162 58.7237 158.969 59.3662 158.282 59.8926C157.594 60.419 156.715 61.3268 156.328 61.91C155.94 62.4932 155.457 63.653 155.253 64.4877C154.949 65.7356 154.923 66.2827 155.107 67.57C155.23 68.4306 155.608 69.7294 155.947 70.4559C156.336 71.2913 157.09 72.3089 157.996 73.2234C158.785 74.0189 160.388 75.2974 161.559 76.0647L163.688 77.4596L161.859 78.0539C160.852 78.3806 159.194 79.0561 158.174 79.5547C157.154 80.0532 155.744 80.925 155.041 81.4918C154.337 82.0587 153.32 83.0523 152.781 83.7C152.241 84.3475 151.485 85.4966 151.1 86.2531C150.715 87.0098 150.226 88.2729 150.013 89.0599C149.731 90.1018 149.628 91.2698 149.635 93.3532C149.642 95.3813 149.757 96.6273 150.029 97.6288C150.241 98.4062 150.693 99.6006 151.034 100.283C151.375 100.965 152.103 102.08 152.652 102.76C153.2 103.44 154.38 104.491 155.274 105.095C156.168 105.698 157.469 106.41 158.165 106.676C158.861 106.942 160.264 107.31 161.283 107.493C162.584 107.726 163.883 107.789 165.643 107.702C167.179 107.627 168.769 107.402 169.748 107.121C170.626 106.868 171.951 106.354 172.691 105.976C173.527 105.55 174.617 104.699 175.571 103.725C176.553 102.724 177.4 101.589 177.921 100.575C178.369 99.703 178.928 98.2305 179.163 97.3027C179.398 96.3747 179.654 94.7004 179.732 93.5819C179.817 92.3464 179.769 90.8283 179.608 89.7147C179.462 88.7064 179.121 87.2652 178.85 86.512C178.579 85.7588 177.906 84.5038 177.355 83.7229C176.803 82.9422 175.808 81.8015 175.143 81.1879C174.479 80.5743 173.32 79.6391 172.568 79.1093C171.817 78.5796 169.289 76.9814 166.951 75.5578C164.613 74.134 162.064 72.45 161.287 71.8155C160.51 71.1807 159.651 70.3278 159.379 69.9201C159.107 69.5123 158.776 68.7745 158.645 68.2809C158.513 67.7873 158.442 66.7261 158.487 65.9229C158.551 64.7889 158.702 64.2589 159.167 63.5498C159.496 63.0476 160.174 62.3375 160.674 61.9721C161.173 61.6066 162.125 61.1482 162.788 60.9536C163.734 60.6757 164.603 60.6249 166.835 60.7169C169.106 60.8107 170.047 60.9542 171.527 61.4331C172.545 61.7627 174.188 62.4102 175.179 62.8723L176.979 63.7123L177.227 63.2312C177.364 62.9666 177.717 62.3281 178.012 61.8122L178.549 60.8741L177.366 60.3459C176.716 60.0553 175.335 59.515 174.298 59.1454C173.261 58.7757 171.6 58.3281 170.608 58.1509C169.616 57.9736 167.97 57.783 166.951 57.7271C165.932 57.6709 164.476 57.7083 163.715 57.8098ZM69.7218 60.9945C69.7218 61.0582 73.2044 67.4989 77.4609 75.3073L85.2 89.5045V98.3089V107.114H86.944H88.688L88.6891 98.1418L88.6904 89.17L96.3192 75.1908C100.515 67.5022 103.948 61.1326 103.948 61.0361C103.948 60.9397 103.155 60.8897 102.185 60.925L100.423 60.9888L93.7453 73.3731C90.0726 80.1846 87.0155 85.7568 86.9514 85.7557C86.8873 85.7548 86.6277 85.3834 86.3741 84.9301C86.1206 84.477 83.2417 79.103 79.9768 72.9878C76.7118 66.8727 73.9002 61.6467 73.7291 61.3741C73.4463 60.9241 73.2486 60.8787 71.5698 60.8787C70.5534 60.8787 69.7218 60.9309 69.7218 60.9945ZM187.443 60.9622C187.443 61.0174 190.554 65.9007 194.357 71.8139C198.159 77.7269 201.269 82.7632 201.268 83.0054C201.267 83.2476 197.91 88.6179 193.807 94.9393C189.704 101.261 186.288 106.59 186.215 106.782C186.099 107.088 186.312 107.124 187.898 107.068L189.714 107.003L196.526 96.5456C200.272 90.7938 203.447 86.0877 203.581 86.0877C203.715 86.0877 206.806 90.7442 210.451 96.4355C214.095 102.127 217.106 106.862 217.142 106.958C217.178 107.054 218.06 107.103 219.104 107.068L221 107.003L213.743 95.7537C209.752 89.5661 206.274 84.1562 206.014 83.7313L205.541 82.9592L212.625 72.1248C216.52 66.1658 219.708 61.1978 219.708 61.0846C219.708 60.9714 218.944 60.8787 218.009 60.8787H216.311L210.021 70.6818C206.562 76.0735 203.674 80.4266 203.604 80.3553C203.533 80.2839 200.724 75.8973 197.36 70.6072L191.245 60.9888L189.344 60.9252C188.299 60.8902 187.443 60.9069 187.443 60.9622ZM51.5961 80.0301C52.5148 80.5127 53.9324 81.4438 54.7465 82.0987C55.5605 82.754 56.6948 83.879 57.2668 84.599C57.8388 85.3187 58.5184 86.4435 58.7767 87.0985C59.0352 87.7535 59.3448 88.7352 59.4647 89.2801C59.5848 89.825 59.6836 91.2121 59.6845 92.3624C59.6853 93.5128 59.5423 95.1389 59.3668 95.9758C59.1911 96.8129 58.7562 98.1266 58.4002 98.895C58.044 99.6633 57.2417 100.838 56.6172 101.505C55.9372 102.231 54.9488 102.982 54.1539 103.376C53.4238 103.738 52.1398 104.18 51.3005 104.359C50.4612 104.538 49.0718 104.686 48.2131 104.688C47.3544 104.69 45.9132 104.549 45.0102 104.374C44.1075 104.2 42.808 103.78 42.1223 103.441C41.4369 103.102 40.3971 102.39 39.8117 101.858C39.2264 101.327 38.4603 100.47 38.1093 99.9553C37.7584 99.4401 37.2229 98.2712 36.9193 97.358C36.4634 95.9866 36.3673 95.281 36.3673 93.3056C36.3673 91.8933 36.5024 90.3765 36.6976 89.6016C36.8791 88.8799 37.3653 87.591 37.7778 86.7376C38.3007 85.6555 38.9567 84.7696 39.9456 83.8108C40.9892 82.7987 41.8987 82.1804 43.3892 81.4695C44.5029 80.9383 46.3954 80.2053 47.5944 79.8405C48.7935 79.4759 49.8085 79.1719 49.8501 79.165C49.8918 79.1582 50.6774 79.5475 51.5961 80.0301ZM167.667 79.7313C168.292 80.0499 169.517 80.8068 170.389 81.4136C171.261 82.0201 172.526 83.1177 173.199 83.8521C173.872 84.5866 174.745 85.8658 175.138 86.6947C175.532 87.5236 175.973 88.9151 176.119 89.7867C176.278 90.7361 176.333 92.2143 176.257 93.4721C176.179 94.7686 175.927 96.2215 175.598 97.2686C175.304 98.2014 174.748 99.4623 174.362 100.07C173.976 100.678 173.217 101.569 172.676 102.05C172.135 102.531 171.19 103.163 170.575 103.454C169.961 103.745 168.68 104.157 167.729 104.369C166.419 104.66 165.469 104.723 163.805 104.626C162.596 104.556 160.998 104.305 160.248 104.068C159.499 103.831 158.407 103.327 157.821 102.947C157.236 102.568 156.265 101.733 155.665 101.092C155.064 100.45 154.375 99.5339 154.133 99.0548C153.891 98.5755 153.543 97.6416 153.36 96.9793C153.178 96.3168 152.965 95.1755 152.888 94.443C152.811 93.7103 152.862 92.2737 153 91.2506C153.138 90.2273 153.529 88.6681 153.868 87.7856C154.207 86.903 154.904 85.632 155.417 84.9607C155.93 84.2896 156.944 83.3121 157.672 82.7883C158.399 82.2648 159.583 81.5728 160.302 81.2507C161.021 80.9286 162.689 80.3293 164.008 79.9189C165.327 79.5085 166.434 79.1681 166.468 79.1626C166.502 79.1571 167.041 79.4129 167.667 79.7313Z" fill="#52555B"/>
</svg>
