<svg width="255" height="164" viewBox="0 0 255 164" fill="none" xmlns="http://www.w3.org/2000/svg">
<path d="M89.8828 82H86.4238L77.5508 67.877V82H74.0918V62.0938H77.5508L86.4512 76.2715V62.0938H89.8828V82ZM97.1836 82H93.8613V67.207H97.1836V82ZM93.6562 63.3652C93.6562 62.8548 93.8158 62.431 94.1348 62.0938C94.4629 61.7565 94.9277 61.5879 95.5293 61.5879C96.1309 61.5879 96.5957 61.7565 96.9238 62.0938C97.252 62.431 97.416 62.8548 97.416 63.3652C97.416 63.8665 97.252 64.2858 96.9238 64.623C96.5957 64.9512 96.1309 65.1152 95.5293 65.1152C94.9277 65.1152 94.4629 64.9512 94.1348 64.623C93.8158 64.2858 93.6562 63.8665 93.6562 63.3652ZM101.982 82V69.668H99.7266V67.207H101.982V65.8535C101.982 64.2129 102.438 62.946 103.35 62.0527C104.261 61.1595 105.537 60.7129 107.178 60.7129C107.761 60.7129 108.381 60.7949 109.037 60.959L108.955 63.5566C108.59 63.4837 108.167 63.4473 107.684 63.4473C106.098 63.4473 105.305 64.263 105.305 65.8945V67.207H108.312V69.668H105.305V82H101.982ZM114.902 63.6113V67.207H117.514V69.668H114.902V77.9258C114.902 78.4909 115.012 78.901 115.23 79.1562C115.458 79.4023 115.859 79.5254 116.434 79.5254C116.816 79.5254 117.204 79.4798 117.596 79.3887V81.959C116.839 82.1686 116.11 82.2734 115.408 82.2734C112.856 82.2734 111.58 80.8652 111.58 78.0488V69.668H109.146V67.207H111.58V63.6113H114.902ZM125.238 77.2422L128.246 67.207H131.787L125.908 84.2422C125.006 86.7305 123.475 87.9746 121.314 87.9746C120.831 87.9746 120.298 87.8926 119.715 87.7285V85.1582L120.344 85.1992C121.182 85.1992 121.811 85.0443 122.23 84.7344C122.659 84.4336 122.996 83.9232 123.242 83.2031L123.721 81.9316L118.525 67.207H122.107L125.238 77.2422ZM156.26 79.416C155.54 80.3548 154.542 81.0658 153.266 81.5488C151.99 82.0319 150.54 82.2734 148.918 82.2734C147.25 82.2734 145.773 81.8952 144.488 81.1387C143.203 80.3822 142.21 79.3021 141.508 77.8984C140.815 76.4857 140.455 74.8405 140.428 72.9629V71.4043C140.428 68.3965 141.148 66.0495 142.588 64.3633C144.028 62.668 146.038 61.8203 148.617 61.8203C150.832 61.8203 152.591 62.3672 153.895 63.4609C155.198 64.5547 155.982 66.1315 156.246 68.1914H152.855C152.473 65.7943 151.083 64.5957 148.686 64.5957C147.136 64.5957 145.956 65.1562 145.145 66.2773C144.342 67.3893 143.928 69.0254 143.9 71.1855V72.7168C143.9 74.8678 144.352 76.5404 145.254 77.7344C146.165 78.9193 147.428 79.5117 149.041 79.5117C150.809 79.5117 152.067 79.1107 152.814 78.3086V74.4121H148.713V71.7871H156.26V79.416ZM168.578 82C168.432 81.7174 168.305 81.2572 168.195 80.6191C167.138 81.722 165.844 82.2734 164.312 82.2734C162.827 82.2734 161.615 81.8496 160.676 81.002C159.737 80.1543 159.268 79.1061 159.268 77.8574C159.268 76.2806 159.851 75.0729 161.018 74.2344C162.193 73.3867 163.87 72.9629 166.049 72.9629H168.086V71.9922C168.086 71.2266 167.872 70.6159 167.443 70.1602C167.015 69.6953 166.363 69.4629 165.488 69.4629C164.732 69.4629 164.112 69.6543 163.629 70.0371C163.146 70.4108 162.904 70.8893 162.904 71.4727H159.582C159.582 70.6615 159.851 69.9049 160.389 69.2031C160.926 68.4922 161.656 67.9362 162.576 67.5352C163.506 67.1341 164.54 66.9336 165.68 66.9336C167.411 66.9336 168.792 67.3711 169.822 68.2461C170.852 69.112 171.381 70.3333 171.408 71.9102V78.582C171.408 79.9128 171.595 80.9746 171.969 81.7676V82H168.578ZM164.928 79.6074C165.584 79.6074 166.199 79.4479 166.773 79.1289C167.357 78.8099 167.794 78.3815 168.086 77.8438V75.0547H166.295C165.064 75.0547 164.139 75.2689 163.52 75.6973C162.9 76.1257 162.59 76.7318 162.59 77.5156C162.59 78.1536 162.799 78.6641 163.219 79.0469C163.647 79.4206 164.217 79.6074 164.928 79.6074ZM179.051 63.6113V67.207H181.662V69.668H179.051V77.9258C179.051 78.4909 179.16 78.901 179.379 79.1562C179.607 79.4023 180.008 79.5254 180.582 79.5254C180.965 79.5254 181.352 79.4798 181.744 79.3887V81.959C180.988 82.1686 180.258 82.2734 179.557 82.2734C177.005 82.2734 175.729 80.8652 175.729 78.0488V69.668H173.295V67.207H175.729V63.6113H179.051ZM190.727 82.2734C188.621 82.2734 186.912 81.6126 185.6 80.291C184.296 78.9603 183.645 77.1921 183.645 74.9863V74.5762C183.645 73.0996 183.927 71.7826 184.492 70.625C185.066 69.4583 185.868 68.5514 186.898 67.9043C187.928 67.2572 189.077 66.9336 190.344 66.9336C192.358 66.9336 193.912 67.5762 195.006 68.8613C196.109 70.1465 196.66 71.9648 196.66 74.3164V75.6562H186.994C187.094 76.8776 187.5 77.8438 188.211 78.5547C188.931 79.2656 189.833 79.6211 190.918 79.6211C192.44 79.6211 193.68 79.0059 194.637 77.7754L196.428 79.4844C195.835 80.3685 195.042 81.0566 194.049 81.5488C193.064 82.0319 191.957 82.2734 190.727 82.2734ZM190.33 69.5996C189.419 69.5996 188.68 69.9186 188.115 70.5566C187.559 71.1947 187.204 72.0833 187.049 73.2227H193.379V72.9766C193.306 71.8646 193.01 71.026 192.49 70.4609C191.971 69.8867 191.251 69.5996 190.33 69.5996ZM212.246 77.4199L214.598 67.207H217.838L213.805 82H211.07L207.898 71.8418L204.781 82H202.047L198 67.207H201.24L203.633 77.3105L206.668 67.207H209.17L212.246 77.4199ZM228.898 82C228.753 81.7174 228.625 81.2572 228.516 80.6191C227.458 81.722 226.164 82.2734 224.633 82.2734C223.147 82.2734 221.935 81.8496 220.996 81.002C220.057 80.1543 219.588 79.1061 219.588 77.8574C219.588 76.2806 220.171 75.0729 221.338 74.2344C222.514 73.3867 224.191 72.9629 226.369 72.9629H228.406V71.9922C228.406 71.2266 228.192 70.6159 227.764 70.1602C227.335 69.6953 226.684 69.4629 225.809 69.4629C225.052 69.4629 224.432 69.6543 223.949 70.0371C223.466 70.4108 223.225 70.8893 223.225 71.4727H219.902C219.902 70.6615 220.171 69.9049 220.709 69.2031C221.247 68.4922 221.976 67.9362 222.896 67.5352C223.826 67.1341 224.861 66.9336 226 66.9336C227.732 66.9336 229.113 67.3711 230.143 68.2461C231.173 69.112 231.701 70.3333 231.729 71.9102V78.582C231.729 79.9128 231.915 80.9746 232.289 81.7676V82H228.898ZM225.248 79.6074C225.904 79.6074 226.52 79.4479 227.094 79.1289C227.677 78.8099 228.115 78.3815 228.406 77.8438V75.0547H226.615C225.385 75.0547 224.46 75.2689 223.84 75.6973C223.22 76.1257 222.91 76.7318 222.91 77.5156C222.91 78.1536 223.12 78.6641 223.539 79.0469C223.967 79.4206 224.537 79.6074 225.248 79.6074ZM240.164 77.2422L243.172 67.207H246.713L240.834 84.2422C239.932 86.7305 238.4 87.9746 236.24 87.9746C235.757 87.9746 235.224 87.8926 234.641 87.7285V85.1582L235.27 85.1992C236.108 85.1992 236.737 85.0443 237.156 84.7344C237.585 84.4336 237.922 83.9232 238.168 83.2031L238.646 81.9316L233.451 67.207H237.033L240.164 77.2422Z" fill="#52555B"/>
<path fill-rule="evenodd" clip-rule="evenodd" d="M14.5219 44.1399C14.1298 44.2257 13.4072 44.4633 12.9159 44.6678C12.4248 44.8722 11.6933 45.2527 11.2902 45.5131C10.8872 45.7737 10.2076 46.3366 9.78006 46.7642C9.35249 47.1918 8.7895 47.8713 8.52896 48.2743C8.26853 48.6774 7.88895 49.4069 7.68553 49.8955C7.4821 50.3841 7.24017 51.1462 7.14782 51.5891C7.0049 52.2746 6.98454 55.5405 7.01076 73.5505C7.0399 93.4777 7.05383 94.7472 7.25093 95.4088C7.36599 95.795 7.69196 96.5851 7.97521 97.1645C8.25835 97.7438 8.76106 98.5495 9.0923 98.9548C9.42354 99.3602 10.039 99.9759 10.4599 100.323C10.8809 100.67 11.5744 101.138 12.001 101.362C12.4278 101.586 13.1981 101.919 13.7131 102.101L14.6495 102.432H36.2444H57.8394L58.7757 102.101C59.2908 101.919 60.0611 101.586 60.4879 101.362C60.9145 101.138 61.608 100.67 62.029 100.323C62.4499 99.9759 63.0621 99.3609 63.3893 98.9565C63.7165 98.5521 64.1645 97.8782 64.3849 97.4588C64.6053 97.0395 64.9345 96.2749 65.1165 95.7599L65.4474 94.8235V73.2286V51.6337L65.1165 50.6973C64.9345 50.1823 64.6022 49.4119 64.378 48.9852C64.1538 48.5585 63.6863 47.865 63.339 47.444C62.9917 47.0231 62.3768 46.411 61.9724 46.0837C61.568 45.7566 60.894 45.3085 60.4747 45.0881C60.0553 44.8677 59.2908 44.5386 58.7757 44.3566L57.8394 44.0257L36.5371 44.0047C19.1612 43.9878 15.1033 44.0127 14.5219 44.1399ZM35.6798 67.0217C39.4344 72.5559 42.5723 77.0856 42.6527 77.0876C42.7687 77.0904 42.799 75.0018 42.799 67.0252V56.9592H46.603H50.407V73.9894V91.0196H47.1927H43.9784L43.0668 89.6736C42.5655 88.9334 41.2862 87.037 40.224 85.4592C39.1618 83.8815 36.4829 79.9048 34.2708 76.6221C32.0588 73.3394 30.1757 70.6536 30.0864 70.6536C29.9491 70.6536 29.924 72.2288 29.924 80.8366V91.0196H26.12H22.316V73.9894V56.9592H25.5846H28.8531L35.6798 67.0217Z" fill="#52555B"/>
</svg>
