<svg width="440" height="276" viewBox="0 0 440 276" fill="none" xmlns="http://www.w3.org/2000/svg">
<path fill-rule="evenodd" clip-rule="evenodd" d="M149.256 72.1465V83.293H157.253H165.251V147.757V212.221H177.525H189.8V136.611V61H169.528H149.256V72.1465ZM236.145 92.9619C223.072 110.514 211.765 125.843 211.018 127.027C207.077 133.274 204.548 139.078 202.734 146.038C201.742 149.845 201.587 151.152 201.429 157.046C201.278 162.662 201.371 164.449 202.011 168.195C205.88 190.871 223.434 208.987 246.122 213.72C262.067 217.046 278.356 213.838 291.829 204.718C293.852 203.349 297.085 200.574 299.738 197.93C306.445 191.246 310.394 184.928 313.305 176.222C315.5 169.661 316.058 165.979 316.043 158.16C316.028 150.569 315.41 146.809 313.077 140.114C305.376 118.013 284.538 102.624 262.089 102.461C259.182 102.44 257.648 102.295 257.792 102.056C257.972 101.757 284.378 67.6032 288.457 62.3933L289.548 61L274.731 61.0253L259.914 61.0505L236.145 92.9619ZM83.4195 97.4521C65.8868 99.4343 50.4691 108.766 40.8018 123.247C36.56 129.6 33.8551 135.924 32.0649 143.67C31.0751 147.952 30.6585 159.355 31.3228 163.977C33.9236 182.073 44.5583 197.758 60.5726 207.117C74.5289 215.273 92.7586 217.06 108.494 211.814C112.602 210.444 117.745 207.988 121.173 205.757C122.605 204.825 123.902 204.059 124.056 204.055C124.21 204.051 124.335 205.886 124.335 208.134V212.221H136.424H148.512V156.488V100.756H136.437H124.361L124.255 104.453L124.149 108.151L121.545 106.451C110.678 99.3585 96.3893 95.9859 83.4195 97.4521ZM325.193 112.643V123.787L352.536 123.883L379.88 123.978L352.536 156.989L325.193 190V201.111V212.221H367.597H410V201.077V189.933L382.632 189.837L355.264 189.742L382.618 156.86L409.971 123.978L409.986 112.738L410 101.499H367.597H325.193V112.643ZM98.7215 122.818C105.109 124.7 109.6 127.305 113.951 131.651C125.495 143.182 127.447 161.029 118.651 174.608C112.234 184.513 101.559 190.3 89.7026 190.3C80.5145 190.3 72.8889 187.312 66.3186 181.138C58.9531 174.217 55.4016 166.077 55.4016 156.117C55.4016 150.249 56.323 146.236 58.8698 141.012C62.9948 132.548 69.9761 126.399 78.812 123.447C83.5571 121.861 85.5389 121.58 90.8587 121.736C94.46 121.841 96.2324 122.084 98.7215 122.818ZM265.23 125.494C285.018 129.546 296.325 151.138 289.102 171.078C281.998 190.689 258.306 198.703 241.022 187.34C238.189 185.477 234.222 181.574 232.323 178.782C225.739 169.096 224.49 155.288 229.199 144.235C233.371 134.443 242.634 127.003 252.75 125.319C256.008 124.777 262.15 124.863 265.23 125.494Z" fill="#40484F"/>
</svg>
