<svg width="538" height="276" viewBox="0 0 538 276" fill="none" xmlns="http://www.w3.org/2000/svg">
<path fill-rule="evenodd" clip-rule="evenodd" d="M21.7756 90.5845L21.7823 90.589L73.5919 124.925L73.6032 124.932C77.5906 127.591 79.917 131.927 79.917 136.658V177.308C79.9342 177.476 79.9429 177.646 79.9429 177.818V181.488C79.9429 184.284 77.6709 186.469 74.9619 186.469C72.1654 186.469 69.9807 184.197 69.9807 181.488V177.818C69.9735 177.586 69.9825 177.359 70.0065 177.136V136.658C70.0065 135.273 69.3633 134.019 68.1104 133.181L68.1059 133.178L16.9104 99.2495V176.758C16.9849 177.101 17.024 177.455 17.024 177.818V181.488C17.024 184.284 14.7519 186.469 12.0429 186.469C9.24646 186.469 7.06177 184.197 7.06177 181.488V179.653H7V98.557C7 96.6741 7.56909 94.8486 8.61872 93.2741C11.4758 88.9885 17.3165 87.6171 21.7756 90.5845ZM495.909 113.064C495.397 113.064 495.072 113.251 494.661 113.489C494.51 113.575 494.348 113.669 494.161 113.763C493.724 114.287 493.462 114.899 493.462 115.598V168.992C493.462 169.479 493.631 169.796 493.852 170.21C493.949 170.39 494.055 170.588 494.161 170.827C494.51 171.177 495.209 171.526 495.909 171.526C496.42 171.526 496.745 171.339 497.156 171.101C497.307 171.014 497.469 170.921 497.656 170.827C498.093 170.303 498.355 169.691 498.355 168.992V144.698H511.988L524.484 170.477C524.834 171.177 525.533 171.963 526.669 171.963C527.019 171.963 527.368 171.963 527.718 171.613C528.417 171.264 528.766 170.914 528.766 170.128C528.989 169.682 528.928 169.379 528.854 169.013C528.812 168.806 528.766 168.578 528.766 168.293L517.319 144.698C521.251 143.999 524.834 142.164 527.368 139.28C530.252 136.396 531.301 133.075 531.301 129.143C531.301 124.774 529.553 121.191 526.319 117.87C523.086 114.986 519.154 113.151 514.522 113.151C514.522 113.064 495.909 113.064 495.909 113.064ZM522.737 136.309C520.552 138.494 517.755 139.542 514.522 139.542H498.443V117.783H514.173C517.406 117.783 520.29 118.831 522.737 121.016C525.271 123.201 526.319 125.735 526.319 128.619C526.319 131.59 524.921 134.124 522.737 136.309ZM471.615 171.526C472.127 171.526 472.451 171.339 472.862 171.101C473.013 171.014 473.175 170.921 473.362 170.827C473.799 170.303 474.062 169.691 474.062 168.992C474.062 168.505 473.892 168.187 473.671 167.774C473.575 167.594 473.469 167.395 473.362 167.157C472.838 166.72 472.226 166.458 471.615 166.458H441.903V144.698H464.099C464.611 144.698 464.936 144.511 465.347 144.273L465.348 144.273C465.498 144.186 465.66 144.093 465.847 143.999C466.284 143.475 466.546 142.863 466.546 142.164C466.546 141.677 466.377 141.359 466.156 140.946C466.059 140.766 465.953 140.567 465.847 140.329C465.323 139.892 464.711 139.63 464.099 139.63H441.903V117.87H471.615C472.127 117.87 472.451 117.683 472.862 117.445C473.013 117.358 473.175 117.265 473.362 117.171C473.799 116.647 474.062 116.035 474.062 115.336C474.062 114.849 473.892 114.531 473.671 114.118C473.575 113.938 473.469 113.739 473.362 113.501C472.838 113.064 472.226 112.802 471.615 112.802H439.456C438.944 112.802 438.62 112.989 438.208 113.226C438.058 113.313 437.896 113.407 437.708 113.501C437.271 114.025 437.009 114.637 437.009 115.336V168.992C437.009 169.479 437.179 169.796 437.4 170.21L437.4 170.21C437.496 170.39 437.602 170.589 437.708 170.827C438.058 171.177 438.757 171.526 439.456 171.526H471.615ZM382.567 170.477C383.004 169.953 383.266 169.341 383.266 168.642V153L390.432 145.397L414.376 170.827C414.725 171.177 415.424 171.526 416.124 171.526C416.635 171.526 416.96 171.339 417.371 171.101C417.522 171.014 417.684 170.921 417.871 170.827C418.308 170.303 418.57 169.691 418.57 168.992C418.57 168.505 418.401 168.187 418.18 167.774C418.083 167.594 417.977 167.395 417.871 167.157L393.927 141.377L417.172 117.084C417.609 116.559 417.871 115.947 417.871 115.248C417.871 114.761 417.702 114.444 417.481 114.03C417.384 113.85 417.278 113.652 417.172 113.413C416.648 112.976 416.036 112.714 415.337 112.714C414.825 112.714 414.501 112.901 414.089 113.139C413.939 113.226 413.777 113.32 413.589 113.413L383.178 146.096V115.248C383.178 114.761 383.009 114.444 382.788 114.03C382.691 113.85 382.585 113.652 382.479 113.413C381.955 112.976 381.343 112.714 380.732 112.714C380.22 112.714 379.895 112.901 379.484 113.139C379.333 113.226 379.171 113.32 378.984 113.413C378.984 113.753 378.901 114.009 378.817 114.274C378.727 114.555 378.634 114.844 378.634 115.248V168.642C378.634 169.129 378.804 169.447 379.025 169.86C379.121 170.04 379.227 170.239 379.333 170.477C379.683 170.827 380.382 171.177 381.081 171.177C381.431 171.177 382.217 170.827 382.567 170.477ZM314.579 171.526C315.628 171.526 316.327 171.177 316.764 170.041L321.745 157.719H351.107L356.088 170.041C356.438 171.089 357.137 171.526 358.273 171.526C358.622 171.526 358.972 171.526 359.322 171.177C359.933 170.914 360.458 170.39 360.72 169.691C361.069 168.992 361.069 168.642 360.72 167.856L355.04 154.049L338.611 114.112C338.611 114.112 338.611 113.763 338.261 113.763V113.413H337.912C337.562 113.064 337.212 113.064 337.212 113.064H336.513H335.814C335.465 113.064 335.115 113.064 335.115 113.413H334.766V113.763C334.766 113.763 334.766 114.112 334.416 114.112L317.812 154.136L312.045 167.943C311.695 168.642 311.695 168.992 312.045 169.778C312.394 170.477 312.744 170.827 313.443 171.264C313.88 171.526 314.23 171.526 314.579 171.526ZM323.493 153L336.339 121.802L349.185 153H323.493ZM262.059 160.603L240.474 124.772V168.992C240.474 169.691 240.212 170.303 239.775 170.827C239.588 170.921 239.426 171.014 239.275 171.101L239.275 171.101C238.864 171.339 238.539 171.526 238.027 171.526C237.618 171.526 237.208 171.406 236.869 171.307C236.629 171.237 236.424 171.177 236.28 171.177C236.174 170.938 236.068 170.74 235.971 170.56C235.75 170.146 235.581 169.828 235.581 169.341V115.598C235.581 114.112 236.28 113.413 237.328 113.064C238.464 112.627 239.513 113.064 240.212 114.112L264.156 154.398L288.45 114.462C289.149 113.413 290.285 113.064 291.334 113.413C292.383 113.413 293.082 114.549 293.082 115.598V169.341C293.082 170.04 292.82 170.652 292.383 171.177C292.195 171.27 292.033 171.364 291.882 171.451C291.471 171.688 291.147 171.876 290.635 171.876C289.936 171.876 289.237 171.526 288.887 171.177C288.781 170.938 288.675 170.74 288.579 170.559C288.358 170.146 288.188 169.828 288.188 169.341V124.337L266.341 160.603V160.952H262.059V160.603ZM167.069 181.488V179.653H167.217V98.557C167.217 96.6741 166.648 94.8486 165.599 93.2741C162.741 88.9883 156.9 87.617 152.441 90.5849L152.435 90.589L100.625 124.925L100.614 124.932C96.6268 127.591 94.3004 131.927 94.3004 136.658V177.136C94.2763 177.359 94.2674 177.586 94.2746 177.818V181.488C94.2746 184.197 96.4593 186.469 99.2557 186.469C101.965 186.469 104.237 184.284 104.237 181.488V177.818C104.237 177.646 104.228 177.476 104.211 177.308V136.658C104.211 135.273 104.854 134.018 106.107 133.181L106.112 133.178L157.307 99.2495V176.408C157.177 176.853 157.106 177.326 157.106 177.818V181.488C157.106 184.197 159.291 186.469 162.087 186.469C164.796 186.469 167.069 184.284 167.069 181.488Z" fill="#484B51"/>
</svg>
