<svg width="40" height="40" viewBox="0 0 40 40" fill="none" xmlns="http://www.w3.org/2000/svg">
<circle cx="20" cy="20" r="20" fill="url(#paint0_radial)"/>
<circle cx="20" cy="20" r="20" fill="url(#paint1_radial)"/>
<g filter="url(#filter0_d)">
<path d="M18.1265 10.3087C18.1265 9.43227 18.7533 8.68124 19.6156 8.52445L25.8621 7.38871C26.9753 7.18631 28.0001 8.04152 28.0001 9.17298V31.0818C28.0001 32.2132 26.9753 33.0685 25.8621 32.8661L19.6156 31.7303C18.7533 31.5735 18.1265 30.8225 18.1265 29.9461V10.3087Z" fill="url(#paint2_radial)"/>
<path d="M18.1265 10.3087C18.1265 9.43227 18.7533 8.68124 19.6156 8.52445L25.8621 7.38871C26.9753 7.18631 28.0001 8.04152 28.0001 9.17298V31.0818C28.0001 32.2132 26.9753 33.0685 25.8621 32.8661L19.6156 31.7303C18.7533 31.5735 18.1265 30.8225 18.1265 29.9461V10.3087Z" fill="url(#paint3_radial)" fill-opacity="0.4"/>
<path d="M18.1265 10.3087C18.1265 9.43227 18.7533 8.68124 19.6156 8.52445L25.8621 7.38871C26.9753 7.18631 28.0001 8.04152 28.0001 9.17298V31.0818C28.0001 32.2132 26.9753 33.0685 25.8621 32.8661L19.6156 31.7303C18.7533 31.5735 18.1265 30.8225 18.1265 29.9461V10.3087Z" stroke="white" stroke-opacity="0.3" stroke-width="0.403004"/>
</g>
<g filter="url(#filter1_d)">
<path d="M14.5632 10.3087C14.5632 9.43227 15.19 8.68124 16.0523 8.52445L22.2989 7.38871C23.4121 7.18631 24.4368 8.04152 24.4368 9.17298V31.0818C24.4368 32.2132 23.4121 33.0685 22.2989 32.8661L16.0523 31.7303C15.19 31.5735 14.5632 30.8225 14.5632 29.9461V10.3087Z" fill="url(#paint4_radial)"/>
<path d="M14.5632 10.3087C14.5632 9.43227 15.19 8.68124 16.0523 8.52445L22.2989 7.38871C23.4121 7.18631 24.4368 8.04152 24.4368 9.17298V31.0818C24.4368 32.2132 23.4121 33.0685 22.2989 32.8661L16.0523 31.7303C15.19 31.5735 14.5632 30.8225 14.5632 29.9461V10.3087Z" fill="url(#paint5_radial)" fill-opacity="0.8"/>
<path d="M14.5632 10.3087C14.5632 9.43227 15.19 8.68124 16.0523 8.52445L22.2989 7.38871C23.4121 7.18631 24.4368 8.04152 24.4368 9.17298V31.0818C24.4368 32.2132 23.4121 33.0685 22.2989 32.8661L16.0523 31.7303C15.19 31.5735 14.5632 30.8225 14.5632 29.9461V10.3087Z" stroke="white" stroke-opacity="0.5" stroke-width="0.403004"/>
</g>
<g filter="url(#filter2_d)">
<path d="M11 10.3087C11 9.43227 11.6268 8.68124 12.4891 8.52445L18.7357 7.38871C19.8489 7.18631 20.8736 8.04152 20.8736 9.17298V31.0818C20.8736 32.2132 19.8489 33.0685 18.7357 32.8661L12.4891 31.7303C11.6268 31.5735 11 30.8225 11 29.9461V10.3087Z" fill="url(#paint6_radial)"/>
<path d="M11 10.3087C11 9.43227 11.6268 8.68124 12.4891 8.52445L18.7357 7.38871C19.8489 7.18631 20.8736 8.04152 20.8736 9.17298V31.0818C20.8736 32.2132 19.8489 33.0685 18.7357 32.8661L12.4891 31.7303C11.6268 31.5735 11 30.8225 11 29.9461V10.3087Z" fill="url(#paint7_radial)" fill-opacity="0.4"/>
<path d="M11 10.3087C11 9.43227 11.6268 8.68124 12.4891 8.52445L18.7357 7.38871C19.8489 7.18631 20.8736 8.04152 20.8736 9.17298V31.0818C20.8736 32.2132 19.8489 33.0685 18.7357 32.8661L12.4891 31.7303C11.6268 31.5735 11 30.8225 11 29.9461V10.3087Z" stroke="white" stroke-opacity="0.3" stroke-width="0.403004"/>
</g>
<defs>
<filter id="filter0_d" x="13.8859" y="4.73763" width="18.355" height="34.0184" filterUnits="userSpaceOnUse" color-interpolation-filters="sRGB">
<feFlood flood-opacity="0" result="BackgroundImageFix"/>
<feColorMatrix in="SourceAlpha" type="matrix" values="0 0 0 0 0 0 0 0 0 0 0 0 0 0 0 0 0 0 127 0"/>
<feOffset dy="1.61862"/>
<feGaussianBlur stdDeviation="2.0196"/>
<feColorMatrix type="matrix" values="0 0 0 0 0.509804 0 0 0 0 0.270588 0 0 0 0 0.886275 0 0 0 0.7 0"/>
<feBlend mode="normal" in2="BackgroundImageFix" result="effect1_dropShadow"/>
<feBlend mode="normal" in="SourceGraphic" in2="effect1_dropShadow" result="shape"/>
</filter>
<filter id="filter1_d" x="10.3226" y="4.73763" width="18.355" height="34.0184" filterUnits="userSpaceOnUse" color-interpolation-filters="sRGB">
<feFlood flood-opacity="0" result="BackgroundImageFix"/>
<feColorMatrix in="SourceAlpha" type="matrix" values="0 0 0 0 0 0 0 0 0 0 0 0 0 0 0 0 0 0 127 0"/>
<feOffset dy="1.61862"/>
<feGaussianBlur stdDeviation="2.0196"/>
<feColorMatrix type="matrix" values="0 0 0 0 0.509804 0 0 0 0 0.270588 0 0 0 0 0.886275 0 0 0 0.7 0"/>
<feBlend mode="normal" in2="BackgroundImageFix" result="effect1_dropShadow"/>
<feBlend mode="normal" in="SourceGraphic" in2="effect1_dropShadow" result="shape"/>
</filter>
<filter id="filter2_d" x="6.75939" y="4.73763" width="18.355" height="34.0184" filterUnits="userSpaceOnUse" color-interpolation-filters="sRGB">
<feFlood flood-opacity="0" result="BackgroundImageFix"/>
<feColorMatrix in="SourceAlpha" type="matrix" values="0 0 0 0 0 0 0 0 0 0 0 0 0 0 0 0 0 0 127 0"/>
<feOffset dy="1.61862"/>
<feGaussianBlur stdDeviation="2.0196"/>
<feColorMatrix type="matrix" values="0 0 0 0 0.509804 0 0 0 0 0.270588 0 0 0 0 0.886275 0 0 0 0.7 0"/>
<feBlend mode="normal" in2="BackgroundImageFix" result="effect1_dropShadow"/>
<feBlend mode="normal" in="SourceGraphic" in2="effect1_dropShadow" result="shape"/>
</filter>
<radialGradient id="paint0_radial" cx="0" cy="0" r="1" gradientUnits="userSpaceOnUse" gradientTransform="translate(38.7976 14.99) rotate(133.897) scale(25.0297 32.2337)">
<stop stop-color="#67777A"/>
<stop offset="1" stop-color="#3F327E"/>
</radialGradient>
<radialGradient id="paint1_radial" cx="0" cy="0" r="1" gradientUnits="userSpaceOnUse" gradientTransform="translate(1.12225 23.1663) rotate(-33.6689) scale(30.1472)">
<stop stop-color="#28274D"/>
<stop offset="1" stop-color="#545371" stop-opacity="0"/>
</radialGradient>
<radialGradient id="paint2_radial" cx="0" cy="0" r="1" gradientUnits="userSpaceOnUse" gradientTransform="translate(27.427 13.7395) rotate(117.985) scale(9.72237 11.0026)">
<stop stop-color="white" stop-opacity="0.51"/>
<stop offset="1" stop-color="#E6FBFF" stop-opacity="0.05"/>
</radialGradient>
<radialGradient id="paint3_radial" cx="0" cy="0" r="1" gradientUnits="userSpaceOnUse" gradientTransform="translate(23.0633 13.1535) rotate(86.814) scale(8.12927 3.31037)">
<stop stop-color="white"/>
<stop offset="1" stop-color="white" stop-opacity="0"/>
</radialGradient>
<radialGradient id="paint4_radial" cx="0" cy="0" r="1" gradientUnits="userSpaceOnUse" gradientTransform="translate(23.8638 13.7395) rotate(117.985) scale(9.72237 11.0026)">
<stop stop-color="white" stop-opacity="0.81"/>
<stop offset="1" stop-color="#E6FBFF" stop-opacity="0.52"/>
</radialGradient>
<radialGradient id="paint5_radial" cx="0" cy="0" r="1" gradientUnits="userSpaceOnUse" gradientTransform="translate(19.5 13.1535) rotate(86.814) scale(8.12927 3.31037)">
<stop stop-color="white"/>
<stop offset="1" stop-color="white" stop-opacity="0"/>
</radialGradient>
<radialGradient id="paint6_radial" cx="0" cy="0" r="1" gradientUnits="userSpaceOnUse" gradientTransform="translate(20.3006 13.7395) rotate(117.985) scale(9.72237 11.0026)">
<stop stop-color="white" stop-opacity="0.51"/>
<stop offset="1" stop-color="#E6FBFF" stop-opacity="0.05"/>
</radialGradient>
<radialGradient id="paint7_radial" cx="0" cy="0" r="1" gradientUnits="userSpaceOnUse" gradientTransform="translate(15.9368 13.1535) rotate(86.814) scale(8.12927 3.31037)">
<stop stop-color="white"/>
<stop offset="1" stop-color="white" stop-opacity="0"/>
</radialGradient>
</defs>
</svg>
